<svg width="18" height="21" viewBox="0 0 18 21" fill="none" xmlns="http://www.w3.org/2000/svg">
<path d="M17.6953 14.1562C17.3307 13.7135 16.9466 13.1927 16.543 12.5938C16.1523 11.9948 15.957 11.3763 15.957 10.7383V6.65625C15.957 5.77083 15.8008 4.94401 15.4883 4.17578C15.1888 3.39453 14.7656 2.71745 14.2188 2.14453C13.6849 1.55859 13.0534 1.10286 12.3242 0.777344C11.5951 0.438802 10.8073 0.269531 9.96094 0.269531C9.1276 0.269531 8.34635 0.438802 7.61719 0.777344C6.88802 1.10286 6.25651 1.55859 5.72266 2.14453C5.1888 2.71745 4.76562 3.39453 4.45312 4.17578C4.15365 4.94401 4.00391 5.77083 4.00391 6.65625V10.7383C4.00391 11.3633 3.79557 11.9688 3.37891 12.5547C2.96224 13.1276 2.57812 13.6419 2.22656 14.0977C1.91406 14.5143 1.66667 14.8984 1.48438 15.25C1.30208 15.5885 1.28906 15.9206 1.44531 16.2461C1.58854 16.5326 1.81641 16.7148 2.12891 16.793C2.45443 16.8581 2.76693 16.8906 3.06641 16.8906H6.64062C6.64062 17.8151 6.96615 18.6029 7.61719 19.2539C8.26823 19.9049 9.05599 20.2305 9.98047 20.2305C10.9049 20.2305 11.6927 19.9049 12.3438 19.2539C12.9948 18.6029 13.3203 17.8151 13.3203 16.8906H16.9727C17.168 16.8906 17.4414 16.8646 17.793 16.8125C18.1445 16.7604 18.3984 16.5716 18.5547 16.2461C18.7109 15.9206 18.6914 15.5951 18.4961 15.2695C18.3008 14.944 18.0339 14.5729 17.6953 14.1562ZM9.98047 18.9219C9.42057 18.9219 8.9388 18.7266 8.53516 18.3359C8.14453 17.9323 7.94922 17.4505 7.94922 16.8906H12.0117C12.0117 17.4505 11.8099 17.9323 11.4062 18.3359C11.0156 18.7266 10.5404 18.9219 9.98047 18.9219ZM16.9727 15.5625H3.06641C3.01432 15.5625 2.96875 15.5625 2.92969 15.5625C2.89062 15.5625 2.85807 15.5625 2.83203 15.5625C2.89714 15.4583 2.96875 15.3477 3.04688 15.2305C3.13802 15.1133 3.22266 15.0026 3.30078 14.8984C3.67839 14.3906 4.10807 13.7852 4.58984 13.082C5.08464 12.3659 5.33203 11.5846 5.33203 10.7383V6.65625C5.33203 5.95312 5.44922 5.29557 5.68359 4.68359C5.91797 4.07161 6.24349 3.53776 6.66016 3.08203C7.07682 2.6263 7.5651 2.26823 8.125 2.00781C8.69792 1.73438 9.3099 1.59766 9.96094 1.59766C10.625 1.59766 11.237 1.73438 11.7969 2.00781C12.3698 2.26823 12.8646 2.6263 13.2812 3.08203C13.6979 3.53776 14.0234 4.07161 14.2578 4.68359C14.5052 5.29557 14.6289 5.95312 14.6289 6.65625V10.7383C14.6289 11.6107 14.8568 12.4115 15.3125 13.1406C15.7812 13.8568 16.2305 14.4753 16.6602 14.9961C16.7383 15.0872 16.8164 15.1849 16.8945 15.2891C16.9727 15.3802 17.0443 15.4714 17.1094 15.5625C17.0964 15.5625 17.0768 15.5625 17.0508 15.5625C17.0247 15.5625 16.9987 15.5625 16.9727 15.5625Z" transform="translate(-1)" fill="#334150"/>
</svg>
