<svg width="20" height="18" viewBox="0 0 20 18" fill="none" xmlns="http://www.w3.org/2000/svg">
<path d="M10 2.75C11.2109 2.75 12.3438 2.91276 13.3984 3.23828C14.4661 3.5638 15.3906 4.01302 16.1719 4.58594C16.9661 5.14583 17.5911 5.8099 18.0469 6.57812C18.5156 7.33333 18.75 8.14062 18.75 9C18.75 9.85938 18.5156 10.6732 18.0469 11.4414C17.5911 12.1966 16.9661 12.8607 16.1719 13.4336C15.3906 13.9935 14.4661 14.4362 13.3984 14.7617C12.3438 15.0872 11.2109 15.25 10 15.25H9.47266C9.30339 15.25 9.15365 15.25 9.02344 15.25C8.89323 15.237 8.73698 15.2174 8.55469 15.1914L7.87109 15.0938L7.42188 15.6406C7.31771 15.7578 7.03125 15.9987 6.5625 16.3633C6.09375 16.7148 5.56641 17.0273 4.98047 17.3008C5.11068 16.9883 5.21484 16.6693 5.29297 16.3438C5.37109 16.0052 5.41016 15.6667 5.41016 15.3281L5.42969 15.2891V14.4102L4.74609 14.0586C4.1862 13.7852 3.69141 13.4661 3.26172 13.1016C2.83203 12.724 2.46745 12.3203 2.16797 11.8906C1.86849 11.4609 1.64062 11.0052 1.48438 10.5234C1.32812 10.0286 1.25 9.52083 1.25 9C1.25 8.14062 1.47786 7.33333 1.93359 6.57812C2.40234 5.8099 3.02734 5.14583 3.80859 4.58594C4.60286 4.01302 5.52734 3.5638 6.58203 3.23828C7.64974 2.91276 8.78906 2.75 10 2.75ZM10 1.5C8.61979 1.5 7.31771 1.69531 6.09375 2.08594C4.88281 2.47656 3.82161 3.01693 2.91016 3.70703C2.01172 4.38411 1.30208 5.17839 0.78125 6.08984C0.260417 6.98828 0 7.95833 0 9C0 9.65104 0.0911458 10.276 0.273438 10.875C0.46875 11.4609 0.742188 12.0208 1.09375 12.5547C1.44531 13.0755 1.88151 13.5573 2.40234 14C2.92318 14.4427 3.51562 14.8333 4.17969 15.1719C4.17969 15.1849 4.17318 15.1979 4.16016 15.2109C4.16016 15.2109 4.16016 15.2174 4.16016 15.2305C4.16016 15.7904 4.03646 16.3503 3.78906 16.9102C3.55469 17.457 3.34635 17.8932 3.16406 18.2188C3.15104 18.2448 3.13802 18.2773 3.125 18.3164C3.125 18.3555 3.125 18.3945 3.125 18.4336C3.125 18.5898 3.17708 18.7266 3.28125 18.8438C3.39844 18.9479 3.53516 19 3.69141 19C3.71745 19 3.74349 19 3.76953 19C3.80859 19 3.83464 19 3.84766 19C4.34245 18.9089 4.83073 18.7526 5.3125 18.5312C5.80729 18.2969 6.26302 18.0495 6.67969 17.7891C7.09635 17.5156 7.45443 17.2552 7.75391 17.0078C8.06641 16.7474 8.27474 16.5521 8.37891 16.4219C8.60026 16.4609 8.78906 16.487 8.94531 16.5C9.11458 16.5 9.29036 16.5 9.47266 16.5C9.55078 16.5 9.62891 16.5 9.70703 16.5C9.79818 16.5 9.89583 16.5 10 16.5C11.3802 16.5 12.6758 16.3047 13.8867 15.9141C15.1107 15.5234 16.1719 14.9896 17.0703 14.3125C17.9818 13.6224 18.6979 12.8281 19.2188 11.9297C19.7396 11.0182 20 10.0417 20 9C20 7.95833 19.7396 6.98828 19.2188 6.08984C18.6979 5.17839 17.9818 4.38411 17.0703 3.70703C16.1719 3.01693 15.1107 2.47656 13.8867 2.08594C12.6758 1.69531 11.3802 1.5 10 1.5Z" transform="translate(0 -1)" fill="#334150"/>
</svg>
