<svg width="20" height="21" viewBox="0 0 20 21" fill="none" xmlns="http://www.w3.org/2000/svg">
<path d="M18.75 2.125H13.75V0.875C13.75 0.705729 13.6849 0.5625 13.5547 0.445312C13.4375 0.315104 13.2943 0.25 13.125 0.25C12.9557 0.25 12.806 0.315104 12.6758 0.445312C12.5586 0.5625 12.5 0.705729 12.5 0.875V2.125H7.5V0.875C7.5 0.705729 7.4349 0.5625 7.30469 0.445312C7.1875 0.315104 7.04427 0.25 6.875 0.25C6.70573 0.25 6.55599 0.315104 6.42578 0.445312C6.30859 0.5625 6.25 0.705729 6.25 0.875V2.125H1.25C0.898438 2.125 0.598958 2.2487 0.351562 2.49609C0.117188 2.73047 0 3.02344 0 3.375V19C0 19.3385 0.117188 19.6315 0.351562 19.8789C0.598958 20.1263 0.898438 20.25 1.25 20.25H18.75C19.1016 20.25 19.3945 20.1263 19.6289 19.8789C19.8763 19.6315 20 19.3385 20 19V3.375C20 3.02344 19.8763 2.73047 19.6289 2.49609C19.3945 2.2487 19.1016 2.125 18.75 2.125ZM18.75 19H1.25V3.375H6.25V4C6.25 4.16927 6.30859 4.31901 6.42578 4.44922C6.55599 4.56641 6.70573 4.625 6.875 4.625C7.04427 4.625 7.1875 4.56641 7.30469 4.44922C7.4349 4.31901 7.5 4.16927 7.5 4V3.375H12.5V4C12.5 4.16927 12.5586 4.31901 12.6758 4.44922C12.806 4.56641 12.9557 4.625 13.125 4.625C13.2943 4.625 13.4375 4.56641 13.5547 4.44922C13.6849 4.31901 13.75 4.16927 13.75 4V3.375H18.75V19ZM14.375 10.25H15.625C15.7943 10.25 15.9375 10.1914 16.0547 10.0742C16.1849 9.94401 16.25 9.79427 16.25 9.625V8.375C16.25 8.20573 16.1849 8.0625 16.0547 7.94531C15.9375 7.8151 15.7943 7.75 15.625 7.75H14.375C14.2057 7.75 14.056 7.8151 13.9258 7.94531C13.8086 8.0625 13.75 8.20573 13.75 8.375V9.625C13.75 9.79427 13.8086 9.94401 13.9258 10.0742C14.056 10.1914 14.2057 10.25 14.375 10.25ZM14.375 15.25H15.625C15.7943 15.25 15.9375 15.1914 16.0547 15.0742C16.1849 14.944 16.25 14.7943 16.25 14.625V13.375C16.25 13.2057 16.1849 13.0625 16.0547 12.9453C15.9375 12.8151 15.7943 12.75 15.625 12.75H14.375C14.2057 12.75 14.056 12.8151 13.9258 12.9453C13.8086 13.0625 13.75 13.2057 13.75 13.375V14.625C13.75 14.7943 13.8086 14.944 13.9258 15.0742C14.056 15.1914 14.2057 15.25 14.375 15.25ZM10.625 12.75H9.375C9.20573 12.75 9.05599 12.8151 8.92578 12.9453C8.80859 13.0625 8.75 13.2057 8.75 13.375V14.625C8.75 14.7943 8.80859 14.944 8.92578 15.0742C9.05599 15.1914 9.20573 15.25 9.375 15.25H10.625C10.7943 15.25 10.9375 15.1914 11.0547 15.0742C11.1849 14.944 11.25 14.7943 11.25 14.625V13.375C11.25 13.2057 11.1849 13.0625 11.0547 12.9453C10.9375 12.8151 10.7943 12.75 10.625 12.75ZM10.625 7.75H9.375C9.20573 7.75 9.05599 7.8151 8.92578 7.94531C8.80859 8.0625 8.75 8.20573 8.75 8.375V9.625C8.75 9.79427 8.80859 9.94401 8.92578 10.0742C9.05599 10.1914 9.20573 10.25 9.375 10.25H10.625C10.7943 10.25 10.9375 10.1914 11.0547 10.0742C11.1849 9.94401 11.25 9.79427 11.25 9.625V8.375C11.25 8.20573 11.1849 8.0625 11.0547 7.94531C10.9375 7.8151 10.7943 7.75 10.625 7.75ZM5.625 7.75H4.375C4.20573 7.75 4.05599 7.8151 3.92578 7.94531C3.80859 8.0625 3.75 8.20573 3.75 8.375V9.625C3.75 9.79427 3.80859 9.94401 3.92578 10.0742C4.05599 10.1914 4.20573 10.25 4.375 10.25H5.625C5.79427 10.25 5.9375 10.1914 6.05469 10.0742C6.1849 9.94401 6.25 9.79427 6.25 9.625V8.375C6.25 8.20573 6.1849 8.0625 6.05469 7.94531C5.9375 7.8151 5.79427 7.75 5.625 7.75ZM5.625 12.75H4.375C4.20573 12.75 4.05599 12.8151 3.92578 12.9453C3.80859 13.0625 3.75 13.2057 3.75 13.375V14.625C3.75 14.7943 3.80859 14.944 3.92578 15.0742C4.05599 15.1914 4.20573 15.25 4.375 15.25H5.625C5.79427 15.25 5.9375 15.1914 6.05469 15.0742C6.1849 14.944 6.25 14.7943 6.25 14.625V13.375C6.25 13.2057 6.1849 13.0625 6.05469 12.9453C5.9375 12.8151 5.79427 12.75 5.625 12.75Z" fill="#334150"/>
</svg>
