<svg width="17" height="16" viewBox="0 0 17 16" fill="none" xmlns="http://www.w3.org/2000/svg">
<path d="M14.8975 7.45215L7.85156 0.0839844C7.8125 0.0351565 7.76367 0.000976264 7.70508 -0.0185547C7.64648 -0.0478516 7.58301 -0.0625 7.51465 -0.0625C7.45605 -0.0625 7.39746 -0.0478516 7.33887 -0.0185547C7.28027 0.000976264 7.22656 0.0351565 7.17773 0.0839844L0.102539 7.45215C0.0146484 7.5498 -0.0244141 7.66211 -0.0146484 7.78906C-0.0146484 7.91602 0.0292969 8.02832 0.117188 8.12598C0.214844 8.21387 0.327148 8.25781 0.454102 8.25781C0.581055 8.24805 0.693359 8.19922 0.791016 8.11133L1.4209 7.45215V14.4688C1.4209 14.5957 1.46484 14.7031 1.55273 14.791C1.64062 14.8887 1.75293 14.9375 1.88965 14.9375H5.15625C5.2832 14.9375 5.39062 14.8887 5.47852 14.791C5.57617 14.7031 5.625 14.5957 5.625 14.4688L5.63965 9.78125H9.375V14.4688C9.375 14.5957 9.41895 14.7031 9.50684 14.791C9.60449 14.8887 9.7168 14.9375 9.84375 14.9375H13.125C13.252 14.9375 13.3594 14.8887 13.4473 14.791C13.5449 14.7031 13.5938 14.5957 13.5938 14.4688V7.45215L14.2236 8.11133C14.2627 8.16016 14.3115 8.19922 14.3701 8.22852C14.4287 8.24805 14.4922 8.25781 14.5605 8.25781C14.6191 8.25781 14.6729 8.24805 14.7217 8.22852C14.7803 8.19922 14.834 8.16504 14.8828 8.12598C14.9707 8.02832 15.0146 7.91602 15.0146 7.78906C15.0244 7.66211 14.9854 7.5498 14.8975 7.45215ZM12.6562 6.60254V14H10.3125V9.3125C10.3125 9.18555 10.2637 9.07812 10.166 8.99023C10.0781 8.89258 9.9707 8.84375 9.84375 8.84375H5.1709C5.04395 8.84375 4.93164 8.89258 4.83398 8.99023C4.74609 9.07812 4.70215 9.18555 4.70215 9.3125L4.6875 14H2.3584V6.60254C2.3584 6.58301 2.35352 6.56348 2.34375 6.54395C2.34375 6.52441 2.34375 6.50488 2.34375 6.48535L7.51465 1.09473L12.6709 6.48535C12.6611 6.50488 12.6562 6.52441 12.6562 6.54395C12.6562 6.56348 12.6562 6.58301 12.6562 6.60254Z" transform="translate(1 1)" fill="white"/>
</svg>
