<svg width="11" height="12" viewBox="0 0 11 12" fill="none" xmlns="http://www.w3.org/2000/svg">
<path d="M11.832 5.23633L7.10938 0.691406C6.9401 0.539062 6.73698 0.462891 6.5 0.462891C6.26302 0.462891 6.0599 0.539062 5.89062 0.691406L1.16797 5.23633C1.07487 5.32096 1.02409 5.42676 1.01562 5.55371C1.00716 5.68066 1.04525 5.79069 1.12988 5.88379C1.21452 5.97689 1.32031 6.02767 1.44727 6.03613C1.57422 6.0446 1.68424 6.00651 1.77734 5.92188L6.5 1.37695L11.2227 5.92188C11.3158 6.00651 11.4258 6.0446 11.5527 6.03613C11.6797 6.02767 11.7855 5.97689 11.8701 5.88379C11.9548 5.79069 11.9928 5.68066 11.9844 5.55371C11.9759 5.42676 11.9251 5.32096 11.832 5.23633ZM10.5752 6.9248C10.4482 6.9248 10.3382 6.97135 10.2451 7.06445C10.1605 7.14909 10.1182 7.25488 10.1182 7.38184V10.8984H8.30273V7.85156C8.30273 7.59766 8.21387 7.38184 8.03613 7.2041C7.8584 7.02637 7.64258 6.9375 7.38867 6.9375H5.61133C5.35742 6.9375 5.1416 7.02637 4.96387 7.2041C4.78613 7.38184 4.69727 7.59766 4.69727 7.85156V10.8984H2.88184V7.38184C2.88184 7.25488 2.83529 7.14909 2.74219 7.06445C2.65755 6.97135 2.55176 6.9248 2.4248 6.9248C2.29785 6.9248 2.18783 6.97135 2.09473 7.06445C2.01009 7.14909 1.96777 7.25488 1.96777 7.38184V10.8984C1.96777 11.1523 2.05664 11.3682 2.23438 11.5459C2.41211 11.7236 2.62793 11.8125 2.88184 11.8125H10.1182C10.3721 11.8125 10.5879 11.7236 10.7656 11.5459C10.9434 11.3682 11.0322 11.1523 11.0322 10.8984V7.38184C11.0322 7.25488 10.9857 7.14909 10.8926 7.06445C10.8079 6.97135 10.7021 6.9248 10.5752 6.9248ZM5.61133 7.85156H7.38867V10.8984H5.61133V7.85156Z" transform="translate(-1)" fill="white"/>
</svg>
