<svg width="15" height="16" viewBox="0 0 15 16" fill="none" xmlns="http://www.w3.org/2000/svg">
<path d="M0.322266 4.36133L7.28027 8.15527C7.31934 8.16504 7.35352 8.1748 7.38281 8.18457C7.42187 8.19434 7.46094 8.19922 7.5 8.19922C7.53906 8.19922 7.57812 8.19922 7.61719 8.19922C7.65625 8.18945 7.69043 8.1748 7.71973 8.15527L14.7656 4.36133C14.834 4.32227 14.8877 4.26367 14.9268 4.18555C14.9756 4.10742 15 4.02441 15 3.93652C15 3.84863 14.9756 3.77051 14.9268 3.70215C14.8877 3.62402 14.8291 3.56543 14.751 3.52637L7.79297 -0.00390625C7.72461 -0.042969 7.65137 -0.0625 7.57324 -0.0625C7.50488 -0.0625 7.43652 -0.042969 7.36816 -0.00390625L0.336914 3.52637C0.258789 3.56543 0.195312 3.62402 0.146484 3.70215C0.0976562 3.77051 0.0732422 3.84863 0.0732422 3.93652C0.0732422 4.02441 0.0927734 4.10742 0.131836 4.18555C0.180664 4.26367 0.244141 4.32227 0.322266 4.36133ZM7.57324 0.933594L13.5205 3.96582L7.5 7.20312L1.55273 3.96582L7.57324 0.933594ZM14.6631 6.96875L13.2715 6.26562L12.2754 6.80762L13.4473 7.4082L7.42676 10.6455L1.47949 7.4082L2.72461 6.77832L1.72852 6.23633L0.249023 6.96875C0.170898 7.00781 0.107422 7.06641 0.0585938 7.14453C0.0195313 7.21289 0 7.29102 0 7.37891C0 7.4668 0.0195313 7.5498 0.0585938 7.62793C0.107422 7.70605 0.166016 7.76465 0.234375 7.80371L7.19238 11.5977C7.23145 11.6172 7.27051 11.6318 7.30957 11.6416C7.34863 11.6514 7.3877 11.6562 7.42676 11.6562C7.46582 11.6562 7.5 11.6514 7.5293 11.6416C7.56836 11.6318 7.60742 11.6172 7.64648 11.5977L14.6777 7.80371C14.7559 7.76465 14.8145 7.70605 14.8535 7.62793C14.9023 7.5498 14.9268 7.4668 14.9268 7.37891C14.9268 7.30078 14.9023 7.22266 14.8535 7.14453C14.8047 7.06641 14.7412 7.00781 14.6631 6.96875ZM14.6631 10.25L13.3447 9.60547L12.3486 10.1475L13.4473 10.6895L7.42676 13.9268L1.47949 10.6895L2.63672 10.1621L1.64062 9.62012L0.249023 10.25C0.170898 10.2891 0.107422 10.3477 0.0585938 10.4258C0.0195313 10.4941 0 10.5723 0 10.6602C0 10.748 0.0195313 10.8311 0.0585938 10.9092C0.107422 10.9873 0.166016 11.0459 0.234375 11.085L7.19238 14.8789C7.23145 14.8984 7.27051 14.9131 7.30957 14.9229C7.34863 14.9326 7.3877 14.9375 7.42676 14.9375C7.46582 14.9375 7.5 14.9326 7.5293 14.9229C7.56836 14.9131 7.60742 14.8984 7.64648 14.8789L14.6777 11.085C14.7559 11.0459 14.8145 10.9873 14.8535 10.9092C14.9023 10.8311 14.9268 10.748 14.9268 10.6602C14.9268 10.582 14.9023 10.5039 14.8535 10.4258C14.8047 10.3477 14.7412 10.2891 14.6631 10.25Z" transform="translate(0 1)" fill="white"/>
</svg>
