<svg width="17" height="16" viewBox="0 0 17 16" fill="none" xmlns="http://www.w3.org/2000/svg">
<path d="M11.7041 14H0.922852V2.28125H7.51465L8.4668 1.37305L8.4375 1.34375H0.922852C0.668945 1.34375 0.449219 1.43652 0.263672 1.62207C0.078125 1.80762 -0.0146484 2.02734 -0.0146484 2.28125V14C-0.0146484 14.2637 0.078125 14.4834 0.263672 14.6592C0.449219 14.8447 0.668945 14.9375 0.922852 14.9375H11.7041C11.9678 14.9375 12.1875 14.8447 12.3633 14.6592C12.5488 14.4834 12.6416 14.2637 12.6416 14V7.14453L11.7041 8.03809V14ZM14.2676 0.538086C14.0625 0.342774 13.8428 0.196289 13.6084 0.0986328C13.374 -0.00878876 13.1299 -0.0625 12.876 -0.0625C12.4951 -0.0625 12.168 0.0302731 11.8945 0.21582C11.6309 0.391602 11.46 0.518555 11.3818 0.59668C11.3232 0.645508 10.957 1.01172 10.2832 1.69531C9.60938 2.36914 8.87695 3.10156 8.08594 3.89258C7.29492 4.67383 6.57227 5.3916 5.91797 6.0459C5.27344 6.69043 4.95117 7.0127 4.95117 7.0127C4.92188 7.04199 4.89746 7.07129 4.87793 7.10059C4.86816 7.12988 4.8584 7.15918 4.84863 7.18848C4.7998 7.34473 4.72168 7.6084 4.61426 7.97949C4.50684 8.35059 4.39453 8.73145 4.27734 9.12207C4.16016 9.50293 4.05273 9.84473 3.95508 10.1475C3.86719 10.4404 3.82324 10.5918 3.82324 10.6016C3.80371 10.6699 3.80371 10.7432 3.82324 10.8213C3.84277 10.8896 3.87695 10.9482 3.92578 10.9971C3.96484 11.0361 4.00879 11.0654 4.05762 11.085C4.10645 11.1045 4.15527 11.1143 4.2041 11.1143C4.22363 11.1143 4.24316 11.1143 4.2627 11.1143C4.28223 11.1045 4.30176 11.0996 4.32129 11.0996C4.33105 11.0996 4.4873 11.0508 4.79004 10.9531C5.09277 10.8457 5.43945 10.7334 5.83008 10.6162C6.2207 10.4893 6.59668 10.3672 6.95801 10.25C7.31934 10.1328 7.55859 10.0596 7.67578 10.0303C7.70508 10.0205 7.72949 10.0059 7.74902 9.98633C7.77832 9.9668 7.80762 9.94727 7.83691 9.92773C7.90527 9.85938 8.25684 9.50781 8.8916 8.87305C9.53613 8.23828 10.2393 7.5498 11.001 6.80762C11.7627 6.05566 12.4756 5.35254 13.1396 4.69824C13.8037 4.04395 14.1895 3.6582 14.2969 3.54102C14.541 3.28711 14.7217 3.0332 14.8389 2.7793C14.9561 2.52539 15.0146 2.27148 15.0146 2.01758C15.0049 1.75391 14.9365 1.5 14.8096 1.25586C14.6924 1.01172 14.5117 0.772461 14.2676 0.538086ZM13.623 2.88184C13.5645 2.9502 13.3887 3.12598 13.0957 3.40918C12.8125 3.69238 12.417 4.08789 11.9092 4.5957C11.4014 5.09375 10.7812 5.7041 10.0488 6.42676C9.32617 7.13965 8.49609 7.95996 7.55859 8.8877L7.26562 9.16602C7.05078 9.23437 6.71875 9.3418 6.26953 9.48828C5.83008 9.625 5.41504 9.75684 5.02441 9.88379C5.15137 9.47363 5.27832 9.04883 5.40527 8.60938C5.54199 8.16016 5.64453 7.81348 5.71289 7.56934C5.9082 7.37402 6.33789 6.94434 7.00195 6.28027C7.67578 5.61621 8.37402 4.92285 9.09668 4.2002C9.8291 3.46777 10.4883 2.80859 11.0742 2.22266C11.6699 1.62695 11.9922 1.30469 12.041 1.25586C12.0605 1.23633 12.1484 1.16797 12.3047 1.05078C12.4707 0.933594 12.6611 0.875 12.876 0.875C13.0029 0.875 13.125 0.904297 13.2422 0.962891C13.3691 1.02148 13.4961 1.10938 13.623 1.22656C13.7695 1.36328 13.877 1.5 13.9453 1.63672C14.0234 1.77344 14.0674 1.90527 14.0771 2.03223C14.0771 2.15918 14.0381 2.2959 13.96 2.44238C13.8916 2.5791 13.7793 2.72559 13.623 2.88184Z" transform="translate(1 1)" fill="white"/>
</svg>
