<svg width="15" height="16" viewBox="0 0 15 16" fill="none" xmlns="http://www.w3.org/2000/svg">
<path d="M10.9277 12.1689L7.9834 10.543C8.53027 10.1035 8.89648 9.52734 9.08203 8.81445C9.27734 8.10156 9.375 7.50586 9.375 7.02734V5.0498C9.375 4.71777 9.27246 4.39062 9.06738 4.06836C8.87207 3.73633 8.6084 3.43848 8.27637 3.1748C7.9541 2.91113 7.58301 2.69629 7.16309 2.53027C6.74316 2.36426 6.31348 2.28125 5.87402 2.28125C5.44434 2.28125 5.01465 2.36426 4.58496 2.53027C4.16504 2.69629 3.78906 2.91113 3.45703 3.1748C3.125 3.43848 2.85645 3.73633 2.65137 4.06836C2.44629 4.39062 2.34375 4.71777 2.34375 5.0498V7.02734C2.34375 7.45703 2.45117 8.03809 2.66602 8.77051C2.88086 9.50293 3.2666 10.0889 3.82324 10.5283L0.791016 12.1689C0.791016 12.1689 0.65918 12.2471 0.395508 12.4033C0.131836 12.5596 0 12.7451 0 12.96V14.1465C0 14.3711 0.078125 14.5566 0.234375 14.7031C0.390625 14.8594 0.576172 14.9375 0.791016 14.9375H10.9277C11.1426 14.9375 11.3281 14.8594 11.4844 14.7031C11.6406 14.5566 11.7188 14.3711 11.7188 14.1465V12.96C11.7188 12.7256 11.5869 12.5352 11.3232 12.3887C11.0596 12.2422 10.9277 12.1689 10.9277 12.1689ZM10.7812 14H0.9375V13.165C0.966797 13.1455 1.00098 13.1211 1.04004 13.0918C1.08887 13.0625 1.13281 13.043 1.17188 13.0332C1.18164 13.0234 1.19141 13.0186 1.20117 13.0186C1.21094 13.0088 1.2207 13.0039 1.23047 13.0039L4.2627 11.3486C4.39941 11.2803 4.51172 11.1826 4.59961 11.0557C4.6875 10.9189 4.73633 10.7725 4.74609 10.6162C4.76563 10.46 4.74121 10.3086 4.67285 10.1621C4.61426 10.0156 4.52637 9.89355 4.40918 9.7959C4.00879 9.4834 3.7207 9.03906 3.54492 8.46289C3.36914 7.87695 3.28125 7.39844 3.28125 7.02734V5.0498C3.28125 4.70801 3.54492 4.31738 4.07227 3.87793C4.60937 3.43848 5.20996 3.21875 5.87402 3.21875C6.55762 3.21875 7.15332 3.43848 7.66113 3.87793C8.17871 4.31738 8.4375 4.70801 8.4375 5.0498V7.02734C8.4375 7.39844 8.36426 7.87695 8.21777 8.46289C8.07129 9.03906 7.79785 9.4834 7.39746 9.7959C7.27051 9.89355 7.17285 10.0156 7.10449 10.1621C7.0459 10.3086 7.02637 10.46 7.0459 10.6162C7.05566 10.7725 7.10449 10.9189 7.19238 11.0557C7.28027 11.1826 7.39258 11.2852 7.5293 11.3633L10.4736 12.9893C10.4932 12.999 10.5078 13.0088 10.5176 13.0186C10.5371 13.0283 10.5518 13.0332 10.5615 13.0332C10.6006 13.0527 10.6396 13.0723 10.6787 13.0918C10.7178 13.1113 10.752 13.1357 10.7812 13.165V14ZM14.209 9.83984L11.2207 8.19922C11.7676 7.76953 12.1436 7.19824 12.3486 6.48535C12.5537 5.7627 12.6562 5.16699 12.6562 4.69824V2.7207C12.6562 2.38867 12.5537 2.05664 12.3486 1.72461C12.1436 1.39258 11.875 1.09473 11.543 0.831055C11.2109 0.567383 10.8301 0.352539 10.4004 0.186523C9.98047 0.0107422 9.55078 -0.0771484 9.11133 -0.0771484C8.54492 -0.0771484 7.99316 0.05957 7.45605 0.333008C6.91895 0.606446 6.47949 0.94336 6.1377 1.34375C6.33301 1.35352 6.5332 1.36328 6.73828 1.37305C6.94336 1.38281 7.13867 1.41699 7.32422 1.47559C7.56836 1.29004 7.8418 1.14355 8.14453 1.03613C8.45703 0.928711 8.7793 0.875 9.11133 0.875C9.79492 0.875 10.4004 1.09473 10.9277 1.53418C11.4551 1.97363 11.7188 2.36914 11.7188 2.7207V4.69824C11.7188 5.05957 11.6357 5.5332 11.4697 6.11914C11.3135 6.69531 11.0352 7.14453 10.6348 7.4668C10.5078 7.56445 10.4102 7.68652 10.3418 7.83301C10.2832 7.97949 10.2637 8.13086 10.2832 8.28711C10.293 8.44336 10.3418 8.58984 10.4297 8.72656C10.5176 8.85352 10.6299 8.95605 10.7666 9.03418L13.7549 10.6602C13.7744 10.6699 13.7891 10.6797 13.7988 10.6895C13.8184 10.6895 13.833 10.6943 13.8428 10.7041C13.8818 10.7139 13.9209 10.7334 13.96 10.7627C13.999 10.7822 14.0332 10.8018 14.0625 10.8213V11.6562H12.1729C12.3096 11.7637 12.4072 11.8955 12.4658 12.0518C12.5342 12.208 12.5977 12.3887 12.6562 12.5938H14.209C14.4238 12.5938 14.6094 12.5205 14.7656 12.374C14.9219 12.2178 15 12.0273 15 11.8027V10.6309C15 10.3965 14.8682 10.2061 14.6045 10.0596C14.3408 9.91309 14.209 9.83984 14.209 9.83984Z" transform="translate(0 1)" fill="white"/>
</svg>
