<svg width="15" height="16" viewBox="0 0 15 16" fill="none" xmlns="http://www.w3.org/2000/svg">
<path d="M14.0625 6.0166L12.8613 5.75293C12.8223 5.59668 12.7686 5.4502 12.7002 5.31348C12.6416 5.16699 12.5781 5.02539 12.5098 4.88867L13.1543 3.80469C13.2813 3.60938 13.3594 3.38477 13.3887 3.13086C13.418 2.87695 13.3398 2.65723 13.1543 2.47168L12.4951 1.8125C12.3096 1.62695 12.085 1.54395 11.8213 1.56348C11.5576 1.57324 11.3281 1.6416 11.1328 1.76855L10.0781 2.44238C9.94141 2.37402 9.7998 2.31055 9.65332 2.25195C9.5166 2.19336 9.375 2.13965 9.22852 2.09082L8.96484 0.860352C8.91602 0.645508 8.80371 0.440429 8.62793 0.245117C8.45215 0.0400391 8.23242 -0.0625 7.96875 -0.0625H7.03125C6.76758 -0.0625 6.55762 0.0400391 6.40137 0.245117C6.24512 0.440429 6.14258 0.650391 6.09375 0.875L5.78613 2.07617C5.62988 2.125 5.47363 2.18359 5.31738 2.25195C5.1709 2.31055 5.02441 2.37891 4.87793 2.45703L3.79395 1.76855C3.6084 1.6416 3.37891 1.57324 3.10547 1.56348C2.8418 1.54395 2.62207 1.62695 2.44629 1.8125L1.77246 2.47168C1.59668 2.65723 1.52344 2.87695 1.55273 3.13086C1.58203 3.38477 1.65527 3.60938 1.77246 3.80469L2.46094 4.94727C2.40234 5.07422 2.34375 5.20605 2.28516 5.34277C2.22656 5.47949 2.17773 5.61621 2.13867 5.75293L0.9375 6.0166C0.712891 6.05566 0.498047 6.16797 0.292969 6.35352C0.0976562 6.5293 0 6.74902 0 7.0127V7.9502C0 8.2041 0.0976562 8.40918 0.292969 8.56543C0.498047 8.72168 0.712891 8.8291 0.9375 8.8877L2.15332 9.18066C2.19238 9.31738 2.23633 9.44922 2.28516 9.57617C2.34375 9.69336 2.40234 9.81055 2.46094 9.92773L1.77246 11.0703C1.65527 11.2656 1.58203 11.4902 1.55273 11.7441C1.52344 11.998 1.59668 12.2178 1.77246 12.4033L2.44629 13.0625C2.62207 13.248 2.8418 13.3359 3.10547 13.3262C3.37891 13.3066 3.6084 13.2334 3.79395 13.1064L4.87793 12.418C5.02441 12.4961 5.17578 12.5693 5.33203 12.6377C5.48828 12.6963 5.64453 12.75 5.80078 12.7988L6.09375 14C6.15234 14.2246 6.25977 14.4346 6.41602 14.6299C6.57227 14.835 6.77734 14.9375 7.03125 14.9375H7.96875C8.23242 14.9375 8.45215 14.835 8.62793 14.6299C8.81348 14.4346 8.92578 14.2246 8.96484 14L9.22852 12.7842C9.38477 12.7354 9.53125 12.6816 9.66797 12.623C9.80469 12.5645 9.94141 12.501 10.0781 12.4326L11.1328 13.1064C11.3281 13.2334 11.5576 13.3066 11.8213 13.3262C12.085 13.3359 12.3096 13.248 12.4951 13.0625L13.1543 12.4033C13.3398 12.2178 13.418 11.998 13.3887 11.7441C13.3594 11.4902 13.2813 11.2656 13.1543 11.0703L12.5098 9.98633C12.5781 9.85938 12.6367 9.73242 12.6855 9.60547C12.7441 9.46875 12.7979 9.32715 12.8467 9.18066L14.0625 8.8877C14.2871 8.8291 14.4971 8.72168 14.6924 8.56543C14.8975 8.40918 15 8.2041 15 7.9502V7.0127C15 6.74902 14.8975 6.5293 14.6924 6.35352C14.4971 6.16797 14.2871 6.05566 14.0625 6.0166ZM14.0625 7.87695C14.043 7.89648 14.0137 7.91602 13.9746 7.93555C13.9453 7.94531 13.9062 7.95508 13.8574 7.96484L12.1143 8.4043L11.9531 8.8877C11.9141 9.00488 11.8701 9.12207 11.8213 9.23926C11.7822 9.34668 11.7334 9.4541 11.6748 9.56152L11.4404 10.0303L12.3633 11.5537C12.3926 11.6025 12.4121 11.6465 12.4219 11.6855C12.4414 11.7246 12.4512 11.7588 12.4512 11.7881L11.8359 12.4033C11.8066 12.3936 11.7773 12.3838 11.748 12.374C11.7188 12.3545 11.6943 12.3398 11.6748 12.3301L10.1367 11.3486L9.65332 11.5977C9.53613 11.6562 9.41895 11.71 9.30176 11.7588C9.18457 11.8076 9.06738 11.8516 8.9502 11.8906L8.4375 12.0664L8.05664 13.8096C8.04687 13.8486 8.02734 13.8877 7.99805 13.9268C7.97852 13.9658 7.96387 13.9902 7.9541 14H7.10449C7.08496 13.9805 7.06543 13.9561 7.0459 13.9268C7.03613 13.8877 7.02637 13.8437 7.0166 13.7949L6.57715 12.0664L6.0791 11.9053C5.95215 11.8662 5.8252 11.8223 5.69824 11.7734C5.57129 11.7148 5.44434 11.6514 5.31738 11.583L4.83398 11.334L3.2959 12.3154C3.2666 12.335 3.23242 12.3545 3.19336 12.374C3.16406 12.3838 3.13477 12.3887 3.10547 12.3887L2.49023 11.7881C2.49023 11.7588 2.49512 11.7246 2.50488 11.6855C2.52441 11.6465 2.54883 11.6074 2.57812 11.5684L3.53027 9.97168L3.31055 9.51758C3.25195 9.41016 3.19824 9.30762 3.14941 9.20996C3.11035 9.10254 3.07617 9 3.04688 8.90234L2.88574 8.4043L1.17188 7.96484C1.11328 7.95508 1.06445 7.94531 1.02539 7.93555C0.986328 7.91602 0.957031 7.89648 0.9375 7.87695V7.0127C0.947266 7.0127 0.966797 7.00293 0.996094 6.9834C1.03516 6.96387 1.06934 6.94922 1.09863 6.93945L2.87109 6.54395L3.03223 6.03125C3.06152 5.92383 3.0957 5.81641 3.13477 5.70898C3.18359 5.60156 3.2373 5.48438 3.2959 5.35742L3.53027 4.90332L2.57812 3.32129C2.54883 3.27246 2.52441 3.22852 2.50488 3.18945C2.49512 3.15039 2.49023 3.11621 2.49023 3.08691L3.10547 2.47168C3.13477 2.48145 3.16406 2.49609 3.19336 2.51562C3.22266 2.52539 3.24707 2.53516 3.2666 2.54492L4.83398 3.54102L5.31738 3.29199C5.44434 3.22363 5.57129 3.16504 5.69824 3.11621C5.8252 3.05762 5.95215 3.00879 6.0791 2.96973L6.57715 2.80859L7.00195 1.10938C7.01172 1.05078 7.02637 1.00195 7.0459 0.962891C7.06543 0.923828 7.08496 0.894531 7.10449 0.875H7.96875C7.96875 0.875 7.97852 0.894531 7.99805 0.933594C8.01758 0.962891 8.03223 0.99707 8.04199 1.03613L8.42285 2.80859L8.93555 2.98438C9.0625 3.01367 9.18457 3.05762 9.30176 3.11621C9.41895 3.16504 9.53613 3.21875 9.65332 3.27734L10.1367 3.52637L11.6455 2.55957C11.6748 2.54004 11.7041 2.52539 11.7334 2.51562C11.7725 2.50586 11.8066 2.50098 11.8359 2.50098L12.4512 3.10156C12.4512 3.12109 12.4414 3.15039 12.4219 3.18945C12.4121 3.22852 12.3926 3.26758 12.3633 3.30664L11.4404 4.84473L11.6748 5.31348C11.7432 5.44043 11.8018 5.5625 11.8506 5.67969C11.8994 5.79688 11.9385 5.91406 11.9678 6.03125L12.1289 6.54395L13.8721 6.93945C13.9209 6.94922 13.9648 6.96875 14.0039 6.99805C14.043 7.01758 14.0674 7.03223 14.0771 7.04199L14.0625 7.87695ZM7.5 4.625C6.72852 4.625 6.06445 4.89844 5.50781 5.44531C4.96094 5.99219 4.6875 6.65625 4.6875 7.4375C4.6875 8.21875 4.96094 8.88281 5.50781 9.42969C6.06445 9.97656 6.72852 10.25 7.5 10.25C8.28125 10.25 8.94531 9.97656 9.49219 9.42969C10.0488 8.88281 10.3271 8.21875 10.3271 7.4375C10.3271 6.65625 10.0488 5.99219 9.49219 5.44531C8.94531 4.89844 8.28125 4.625 7.5 4.625ZM7.5 9.3125C6.98242 9.3125 6.53809 9.13184 6.16699 8.77051C5.80566 8.39941 5.625 7.95508 5.625 7.4375C5.625 6.91992 5.80566 6.48047 6.16699 6.11914C6.53809 5.74805 6.98242 5.5625 7.5 5.5625C8.01758 5.5625 8.45703 5.74805 8.81836 6.11914C9.18945 6.48047 9.375 6.91992 9.375 7.4375C9.375 7.95508 9.18945 8.39941 8.81836 8.77051C8.45703 9.13184 8.01758 9.3125 7.5 9.3125Z" transform="translate(0 1)" fill="white"/>
</svg>
