<svg width="22" height="21" viewBox="0 0 22 21" fill="none" xmlns="http://www.w3.org/2000/svg">
<path fill-rule="evenodd" clip-rule="evenodd" d="M17.7389 4.55174C17.4325 4.55174 17.1834 4.80139 17.1834 5.10911V15.2863C17.1834 16.3618 16.3111 17.237 15.2389 17.237H3.05582C1.98371 17.237 1.11124 16.3618 1.11124 15.2863V3.06531C1.11124 1.98981 1.98371 1.11463 3.05582 1.11463H15.2389C15.5459 1.11463 15.7946 0.865267 15.7946 0.557314C15.7946 0.249596 15.5459 0 15.2389 0H3.05582C1.37112 0 0 1.37508 0 3.06531V15.2863C0 16.9765 1.37112 18.3516 3.05582 18.3516H15.2389C16.9242 18.3516 18.2948 16.9765 18.2948 15.2863V5.10911C18.2946 4.80139 18.0462 4.55174 17.7389 4.55174Z" transform="translate(1 1.58936)" fill="#334150" stroke="#334150" stroke-width="0.3"/>
<path fill-rule="evenodd" clip-rule="evenodd" d="M15.6886 0.163211C15.4715 -0.0544037 15.1195 -0.0544037 14.903 0.163211L3.73872 11.3617L0.948309 8.5628C0.731368 8.34501 0.379779 8.34501 0.162662 8.5628C-0.0542206 8.78042 -0.0542206 9.13328 0.162662 9.35089L3.34649 12.5439C3.45519 12.6527 3.59719 12.7071 3.73943 12.7071C3.88166 12.7071 4.0239 12.6527 4.13231 12.5439C4.13231 12.5434 4.13231 12.5432 4.13278 12.543L15.6886 0.951475C15.9055 0.73386 15.9055 0.380767 15.6886 0.163211Z" transform="translate(5.10693 1.00391)" fill="#334150" stroke="#334150" stroke-width="0.3"/>
</svg>
