<svg width="12" height="12" viewBox="0 0 12 12" fill="none" xmlns="http://www.w3.org/2000/svg">
<path fill-rule="evenodd" clip-rule="evenodd" d="M13.2842 6.19932C13.5241 6.19932 13.7317 6.28695 13.9069 6.46223C14.0822 6.63751 14.1699 6.84508 14.1699 7.08493C14.1699 7.32479 14.0822 7.53235 13.9069 7.70763C13.7317 7.88291 13.5241 7.97055 13.2842 7.97055H7.97055V13.2842C7.97055 13.5241 7.88291 13.7317 7.70763 13.9069C7.53235 14.0822 7.32479 14.1699 7.08493 14.1699C6.84508 14.1699 6.63751 14.0822 6.46223 13.9069C6.28695 13.7317 6.19932 13.5241 6.19932 13.2842V7.97055H0.885616C0.645761 7.97055 0.438197 7.88291 0.262917 7.70763C0.0876383 7.53235 0 7.32479 0 7.08493C0 6.84508 0.0876383 6.63751 0.262917 6.46223C0.438197 6.28695 0.645761 6.19932 0.885616 6.19932H6.19932V0.885616C6.19932 0.645761 6.28695 0.438197 6.46223 0.262917C6.63751 0.0876383 6.84508 0 7.08493 0C7.32479 0 7.53235 0.0876383 7.70763 0.262917C7.88291 0.438197 7.97055 0.645761 7.97055 0.885616V6.19932H13.2842Z" transform="translate(6.01953 -4) rotate(45)" fill="#7E8DA3"/>
</svg>
