<svg width="15" height="15" viewBox="0 0 15 15" fill="none" xmlns="http://www.w3.org/2000/svg">
<path d="M6.22559 9.88379C7.06543 9.88379 7.85156 9.77148 8.58398 9.54688C9.31641 9.3125 9.95117 8.98535 10.4883 8.56543C11.0254 8.14551 11.4453 7.64258 11.748 7.05664C12.0508 6.46094 12.1973 5.80664 12.1875 5.09375C12.1875 4.45898 12.0264 3.86328 11.7041 3.30664C11.3916 2.75 10.9619 2.2666 10.415 1.85645C9.86816 1.44629 9.22363 1.12402 8.48145 0.889648C7.74902 0.645508 6.96289 0.523438 6.12305 0.523438C5.27344 0.523438 4.47754 0.645508 3.73535 0.889648C2.99316 1.12402 2.34375 1.44629 1.78711 1.85645C1.23047 2.2666 0.791016 2.75 0.46875 3.30664C0.15625 3.86328 0 4.45898 0 5.09375C0 5.48438 0.0488281 5.87988 0.146484 6.28027C0.244141 6.68066 0.390625 7.06152 0.585938 7.42285C0.78125 7.78418 1.03027 8.11621 1.33301 8.41895C1.63574 8.72168 1.9873 8.97559 2.3877 9.18066C2.3877 9.19043 2.3877 9.19531 2.3877 9.19531C2.3877 9.19531 2.3877 9.2002 2.3877 9.20996C2.3877 9.55176 2.28027 9.92773 2.06543 10.3379C1.86035 10.7383 1.69922 11.0361 1.58203 11.2314H1.59668C1.58691 11.251 1.57715 11.2705 1.56738 11.29C1.56738 11.3096 1.56738 11.334 1.56738 11.3633C1.56738 11.4609 1.59668 11.5439 1.65527 11.6123C1.72363 11.6807 1.80664 11.7148 1.9043 11.7148C1.92383 11.7148 1.94336 11.7148 1.96289 11.7148C1.98242 11.7051 1.99219 11.7002 1.99219 11.7002C2.00195 11.7002 2.00684 11.7002 2.00684 11.7002C2.30957 11.6514 2.63184 11.5439 2.97363 11.3779C3.3252 11.2119 3.65723 11.0264 3.96973 10.8213C4.28223 10.6162 4.55078 10.4209 4.77539 10.2354C5.00977 10.0498 5.16113 9.91797 5.22949 9.83984C5.36621 9.85938 5.4834 9.87402 5.58105 9.88379C5.68848 9.88379 5.7959 9.88379 5.90332 9.88379C5.95215 9.88379 6.00098 9.88379 6.0498 9.88379C6.1084 9.88379 6.16699 9.88379 6.22559 9.88379ZM4.84863 8.87305L4.24805 9.37109C4.17969 9.45898 4.01367 9.61035 3.75 9.8252C3.49609 10.0303 3.2373 10.2109 2.97363 10.3672C3.13965 9.91797 3.23242 9.61035 3.25195 9.44434C3.27148 9.26855 3.28125 9.18066 3.28125 9.18066L3.3252 8.60938L2.8125 8.3457C2.16797 8.01367 1.69434 7.54004 1.3916 6.9248C1.08887 6.30957 0.9375 5.69922 0.9375 5.09375C0.9375 4.58594 1.06934 4.1123 1.33301 3.67285C1.60645 3.2334 1.97754 2.85254 2.44629 2.53027C2.9248 2.19824 3.47656 1.93945 4.10156 1.75391C4.73633 1.55859 5.41016 1.46094 6.12305 1.46094C6.83594 1.46094 7.50488 1.55859 8.12988 1.75391C8.75488 1.93945 9.29688 2.19824 9.75586 2.53027C10.2148 2.85254 10.5762 3.2334 10.8398 3.67285C11.1133 4.1123 11.25 4.58594 11.25 5.09375C11.25 5.65039 11.123 6.16797 10.8691 6.64648C10.6152 7.11523 10.2637 7.52539 9.81445 7.87695C9.375 8.21875 8.84766 8.4873 8.23242 8.68262C7.62695 8.86816 6.96777 8.96094 6.25488 8.96094C6.25488 8.96094 6.16211 8.96094 5.97656 8.96094C5.79102 8.96094 5.58594 8.94629 5.36133 8.91699L4.84863 8.87305ZM15 8.87305C15 8.23828 14.8633 7.67676 14.5898 7.18848C14.3262 6.7002 13.8867 6.27539 13.2715 5.91406C13.252 6.08008 13.2178 6.25098 13.1689 6.42676C13.1299 6.60254 13.0859 6.76855 13.0371 6.9248C13.4375 7.20801 13.7061 7.50098 13.8428 7.80371C13.9893 8.10645 14.0625 8.46289 14.0625 8.87305C14.0625 9.38086 13.9404 9.8252 13.6963 10.2061C13.4521 10.5771 13.0518 10.9043 12.4951 11.1875L12.041 11.4072C12.041 11.4072 12.0508 11.6221 12.0703 12.0518C12.0898 12.4814 12.1191 12.7695 12.1582 12.916C11.6992 12.584 11.377 12.2959 11.1914 12.0518C11.0156 11.8076 10.9277 11.6855 10.9277 11.6855L10.4297 11.7588C10.332 11.7783 10.1855 11.7881 9.99023 11.7881C9.80469 11.7881 9.71191 11.7881 9.71191 11.7881C9.07715 11.7881 8.51562 11.7148 8.02734 11.5684C7.53906 11.4121 7.09473 11.1777 6.69434 10.8652C6.80176 10.8555 6.60645 10.8506 6.1084 10.8506C5.62012 10.8506 5.36621 10.8604 5.34668 10.8799C5.58105 11.1631 5.84961 11.4219 6.15234 11.6562C6.45508 11.8809 6.79199 12.0762 7.16309 12.2422C7.53418 12.3984 7.92969 12.5205 8.34961 12.6084C8.7793 12.6865 9.2334 12.7256 9.71191 12.7256C9.76074 12.7256 9.80469 12.7256 9.84375 12.7256C9.89258 12.7256 9.94141 12.7256 9.99023 12.7256C10.0879 12.7256 10.1807 12.7256 10.2686 12.7256C10.3564 12.7158 10.459 12.7061 10.5762 12.6963C10.6836 12.833 11.001 13.1211 11.5283 13.5605C12.0557 14 12.5781 14.2637 13.0957 14.3516C13.0957 14.3516 13.1006 14.3516 13.1104 14.3516C13.1104 14.3516 13.1201 14.3516 13.1396 14.3516C13.1592 14.3516 13.1738 14.3516 13.1836 14.3516C13.2715 14.3516 13.3447 14.3223 13.4033 14.2637C13.4619 14.2051 13.4912 14.1318 13.4912 14.0439C13.4912 14.0244 13.4863 14.0049 13.4766 13.9854C13.4766 13.9658 13.4717 13.9463 13.4619 13.9268C13.3643 13.7607 13.2568 13.4775 13.1396 13.0771C13.0225 12.6768 12.9639 12.3252 12.9639 12.0225C12.9639 12.0127 12.9639 12.0029 12.9639 11.9932C13.6572 11.6416 14.1699 11.207 14.502 10.6895C14.834 10.1621 15 9.55664 15 8.87305Z" fill="#7F8FA4"/>
</svg>
