<svg width="15" height="16" viewBox="0 0 15 16" fill="none" xmlns="http://www.w3.org/2000/svg">
<path d="M14.0625 4.34375H10.3125V3.40625C10.3125 3.2793 10.2637 3.17188 10.166 3.08398C10.0781 2.98633 9.9707 2.9375 9.84375 2.9375C9.7168 2.9375 9.60449 2.98633 9.50684 3.08398C9.41895 3.17188 9.375 3.2793 9.375 3.40625V4.34375H5.625V3.40625C5.625 3.2793 5.57617 3.17188 5.47852 3.08398C5.39062 2.98633 5.2832 2.9375 5.15625 2.9375C5.0293 2.9375 4.91699 2.98633 4.81934 3.08398C4.73145 3.17188 4.6875 3.2793 4.6875 3.40625V4.34375H0.9375C0.673828 4.34375 0.449219 4.43652 0.263672 4.62207C0.0878906 4.79785 0 5.01758 0 5.28125V17C0 17.2539 0.0878906 17.4736 0.263672 17.6592C0.449219 17.8447 0.673828 17.9375 0.9375 17.9375H14.0625C14.3262 17.9375 14.5459 17.8447 14.7217 17.6592C14.9072 17.4736 15 17.2539 15 17V5.28125C15 5.01758 14.9072 4.79785 14.7217 4.62207C14.5459 4.43652 14.3262 4.34375 14.0625 4.34375ZM14.0625 17H0.9375V5.28125H4.6875V5.75C4.6875 5.87695 4.73145 5.98926 4.81934 6.08691C4.91699 6.1748 5.0293 6.21875 5.15625 6.21875C5.2832 6.21875 5.39062 6.1748 5.47852 6.08691C5.57617 5.98926 5.625 5.87695 5.625 5.75V5.28125H9.375V5.75C9.375 5.87695 9.41895 5.98926 9.50684 6.08691C9.60449 6.1748 9.7168 6.21875 9.84375 6.21875C9.9707 6.21875 10.0781 6.1748 10.166 6.08691C10.2637 5.98926 10.3125 5.87695 10.3125 5.75V5.28125H14.0625V17ZM10.7812 10.4375H11.7188C11.8457 10.4375 11.9531 10.3936 12.041 10.3057C12.1387 10.208 12.1875 10.0957 12.1875 9.96875V9.03125C12.1875 8.9043 12.1387 8.79688 12.041 8.70898C11.9531 8.61133 11.8457 8.5625 11.7188 8.5625H10.7812C10.6543 8.5625 10.542 8.61133 10.4443 8.70898C10.3564 8.79688 10.3125 8.9043 10.3125 9.03125V9.96875C10.3125 10.0957 10.3564 10.208 10.4443 10.3057C10.542 10.3936 10.6543 10.4375 10.7812 10.4375ZM10.7812 14.1875H11.7188C11.8457 14.1875 11.9531 14.1436 12.041 14.0557C12.1387 13.958 12.1875 13.8457 12.1875 13.7188V12.7812C12.1875 12.6543 12.1387 12.5469 12.041 12.459C11.9531 12.3613 11.8457 12.3125 11.7188 12.3125H10.7812C10.6543 12.3125 10.542 12.3613 10.4443 12.459C10.3564 12.5469 10.3125 12.6543 10.3125 12.7812V13.7188C10.3125 13.8457 10.3564 13.958 10.4443 14.0557C10.542 14.1436 10.6543 14.1875 10.7812 14.1875ZM7.96875 12.3125H7.03125C6.9043 12.3125 6.79199 12.3613 6.69434 12.459C6.60645 12.5469 6.5625 12.6543 6.5625 12.7812V13.7188C6.5625 13.8457 6.60645 13.958 6.69434 14.0557C6.79199 14.1436 6.9043 14.1875 7.03125 14.1875H7.96875C8.0957 14.1875 8.20312 14.1436 8.29102 14.0557C8.38867 13.958 8.4375 13.8457 8.4375 13.7188V12.7812C8.4375 12.6543 8.38867 12.5469 8.29102 12.459C8.20312 12.3613 8.0957 12.3125 7.96875 12.3125ZM7.96875 8.5625H7.03125C6.9043 8.5625 6.79199 8.61133 6.69434 8.70898C6.60645 8.79688 6.5625 8.9043 6.5625 9.03125V9.96875C6.5625 10.0957 6.60645 10.208 6.69434 10.3057C6.79199 10.3936 6.9043 10.4375 7.03125 10.4375H7.96875C8.0957 10.4375 8.20312 10.3936 8.29102 10.3057C8.38867 10.208 8.4375 10.0957 8.4375 9.96875V9.03125C8.4375 8.9043 8.38867 8.79688 8.29102 8.70898C8.20312 8.61133 8.0957 8.5625 7.96875 8.5625ZM4.21875 8.5625H3.28125C3.1543 8.5625 3.04199 8.61133 2.94434 8.70898C2.85645 8.79688 2.8125 8.9043 2.8125 9.03125V9.96875C2.8125 10.0957 2.85645 10.208 2.94434 10.3057C3.04199 10.3936 3.1543 10.4375 3.28125 10.4375H4.21875C4.3457 10.4375 4.45312 10.3936 4.54102 10.3057C4.63867 10.208 4.6875 10.0957 4.6875 9.96875V9.03125C4.6875 8.9043 4.63867 8.79688 4.54102 8.70898C4.45312 8.61133 4.3457 8.5625 4.21875 8.5625ZM4.21875 12.3125H3.28125C3.1543 12.3125 3.04199 12.3613 2.94434 12.459C2.85645 12.5469 2.8125 12.6543 2.8125 12.7812V13.7188C2.8125 13.8457 2.85645 13.958 2.94434 14.0557C3.04199 14.1436 3.1543 14.1875 3.28125 14.1875H4.21875C4.3457 14.1875 4.45312 14.1436 4.54102 14.0557C4.63867 13.958 4.6875 13.8457 4.6875 13.7188V12.7812C4.6875 12.6543 4.63867 12.5469 4.54102 12.459C4.45312 12.3613 4.3457 12.3125 4.21875 12.3125Z" transform="translate(0 -2)" fill="#7F8FA4"/>
</svg>
