<svg width="17" height="11" viewBox="0 0 17 11" fill="none" xmlns="http://www.w3.org/2000/svg">
<path d="M7.54395 4.63965C6.77246 4.63965 6.1084 4.91797 5.55176 5.47461C5.00488 6.02148 4.73145 6.68066 4.73145 7.45215C4.73145 8.2334 5.00488 8.89746 5.55176 9.44434C6.1084 9.99121 6.77246 10.2646 7.54395 10.2646C8.3252 10.2646 8.98926 9.99121 9.53613 9.44434C10.083 8.89746 10.3564 8.2334 10.3564 7.45215C10.3564 6.68066 10.083 6.02148 9.53613 5.47461C8.98926 4.91797 8.3252 4.63965 7.54395 4.63965ZM7.54395 9.32715C7.03613 9.32715 6.5918 9.1416 6.21094 8.77051C5.83984 8.39941 5.6543 7.95508 5.6543 7.4375C5.6543 6.91992 5.83496 6.48047 6.19629 6.11914C6.56738 5.74805 7.01172 5.5625 7.5293 5.5625C8.04687 5.5625 8.48633 5.74805 8.84766 6.11914C9.21875 6.48047 9.4043 6.91992 9.4043 7.4375C9.4043 7.95508 9.22363 8.39941 8.8623 8.77051C8.50098 9.1416 8.06152 9.32715 7.54395 9.32715ZM15 7.33496C14.9902 7.31543 14.9854 7.30078 14.9854 7.29102C14.9854 7.28125 14.9854 7.27148 14.9854 7.26172C14.9854 7.25195 14.9805 7.24707 14.9707 7.24707C14.9707 7.2373 14.9707 7.23242 14.9707 7.23242C14.9707 7.22266 14.9707 7.21777 14.9707 7.21777C14.9707 7.20801 14.9658 7.19824 14.9561 7.18848C14.624 6.40723 14.1943 5.71387 13.667 5.1084C13.1396 4.49316 12.5537 3.97559 11.9092 3.55566C11.2646 3.13574 10.5664 2.81836 9.81445 2.60352C9.07227 2.37891 8.31055 2.2666 7.5293 2.2666C6.74805 2.2666 5.98145 2.37891 5.22949 2.60352C4.47754 2.81836 3.77441 3.13574 3.12012 3.55566C2.46582 3.97559 1.87012 4.49316 1.33301 5.1084C0.805664 5.71387 0.371094 6.40723 0.0292969 7.18848C0.0292969 7.19824 0.0292969 7.20801 0.0292969 7.21777C0.0292969 7.21777 0.0292969 7.22266 0.0292969 7.23242C0.0292969 7.23242 0.0244141 7.2373 0.0146484 7.24707C0.0146484 7.2666 0.0146484 7.28125 0.0146484 7.29102C0.0146484 7.30078 0.00976563 7.31055 0 7.32031C0 7.33984 0 7.36426 0 7.39355C-0.00976563 7.41309 -0.0146484 7.43262 -0.0146484 7.45215C-0.0146484 7.47168 -0.00976563 7.49121 0 7.51074C0 7.53027 0 7.5498 0 7.56934C0.00976563 7.58887 0.0146484 7.60352 0.0146484 7.61328C0.0146484 7.62305 0.0146484 7.63281 0.0146484 7.64258C0.0146484 7.65234 0.0146484 7.66211 0.0146484 7.67188C0.0244141 7.67188 0.0292969 7.67188 0.0292969 7.67188C0.0292969 7.68164 0.0292969 7.69141 0.0292969 7.70117C0.0292969 7.70117 0.0292969 7.70605 0.0292969 7.71582C0.371094 8.49707 0.805664 9.19043 1.33301 9.7959C1.86035 10.4014 2.45117 10.9141 3.10547 11.334C3.75977 11.7441 4.45801 12.0615 5.2002 12.2861C5.95215 12.501 6.71875 12.6084 7.5 12.6084C8.28125 12.6084 9.04297 12.501 9.78516 12.2861C10.5371 12.0615 11.2402 11.7441 11.8945 11.334C12.5488 10.9141 13.1396 10.4014 13.667 9.7959C14.1943 9.19043 14.624 8.49707 14.9561 7.71582C14.9658 7.70605 14.9707 7.70117 14.9707 7.70117C14.9707 7.69141 14.9707 7.68164 14.9707 7.67188C14.9805 7.66211 14.9854 7.65723 14.9854 7.65723C14.9854 7.6377 14.9854 7.62305 14.9854 7.61328C14.9854 7.60352 14.9902 7.59375 15 7.58398C15 7.56445 15 7.54492 15 7.52539C15.0098 7.49609 15.0146 7.47168 15.0146 7.45215C15.0146 7.43262 15.0098 7.41309 15 7.39355C15 7.37402 15 7.35449 15 7.33496ZM7.5 11.6709C6.83594 11.6709 6.18164 11.583 5.53711 11.4072C4.89258 11.2314 4.28223 10.9678 3.70605 10.6162C3.13965 10.2646 2.61719 9.8252 2.13867 9.29785C1.66016 8.77051 1.26465 8.15527 0.952148 7.45215C1.26465 6.74902 1.66016 6.13379 2.13867 5.60645C2.61719 5.0791 3.14453 4.63965 3.7207 4.28809C4.29688 3.92676 4.90723 3.6582 5.55176 3.48242C6.20605 3.29687 6.86523 3.2041 7.5293 3.2041C8.19336 3.2041 8.84766 3.29687 9.49219 3.48242C10.1367 3.6582 10.7422 3.92676 11.3086 4.28809C11.8848 4.63965 12.4072 5.0791 12.876 5.60645C13.3447 6.13379 13.7354 6.74902 14.0479 7.45215C13.7354 8.15527 13.3398 8.77051 12.8613 9.29785C12.3926 9.8252 11.8701 10.2646 11.2939 10.6162C10.7275 10.9678 10.1172 11.2314 9.46289 11.4072C8.81836 11.583 8.16406 11.6709 7.5 11.6709Z" transform="translate(1 -2)" fill="#7F8FA4"/>
</svg>
