<svg width="38" height="47" viewBox="0 0 38 47" fill="none" xmlns="http://www.w3.org/2000/svg">
<mask id="mask0" mask-type="alpha" maskUnits="userSpaceOnUse" x="0" y="0" width="38" height="47">
<path fill-rule="evenodd" clip-rule="evenodd" d="M0 0L0 45.9495H37.5735V0L0 0Z" transform="translate(0.272888 0.399414)" fill="white"/>
</mask>
<g mask="url(#mask0)">
<path fill-rule="evenodd" clip-rule="evenodd" d="M23.3782 0.796875L4.12685 1.01648C2.36573 1.03645 0.933777 2.27743 0.933777 3.78314V42.276C0.933777 43.8616 2.44184 45.1513 4.29586 45.1513H33.2777C35.1317 45.1513 36.6397 43.8616 36.6397 42.276V11.6355L23.3782 0.796875ZM33.2777 45.9496H4.29587C1.92312 45.9496 0 44.3046 0 42.2758V3.78293C0 1.84799 1.85122 0.243252 4.11378 0.217697L23.2213 8.5806e-05C23.5584 -0.00350778 23.8843 0.105897 24.128 0.305141L37.1757 10.9681C37.4297 11.1761 37.5735 11.4636 37.5735 11.7643V42.2758C37.5735 44.3046 35.6504 45.9496 33.2777 45.9496Z" transform="translate(0.272888 0.399414)" fill="#7F8FA4"/>
</g>
</svg>
