<svg width="16" height="15" viewBox="0 0 16 15" fill="none" xmlns="http://www.w3.org/2000/svg">
<path d="M4.21875 1.60742C4.45312 1.60742 4.78027 1.7002 5.2002 1.88574C5.62988 2.07129 6.18164 2.49609 6.85547 3.16016L7.5293 3.81934L8.18848 3.14551C8.65723 2.66699 9.12109 2.29102 9.58008 2.01758C10.0488 1.74414 10.4492 1.60742 10.7812 1.60742C11.2305 1.60742 11.6406 1.69043 12.0117 1.85645C12.3828 2.0127 12.7393 2.26172 13.0811 2.60352C13.4033 2.92578 13.6523 3.29687 13.8281 3.7168C14.0039 4.13672 14.0918 4.57617 14.0918 5.03516C14.0918 5.49414 14.0039 5.93359 13.8281 6.35352C13.6523 6.77344 13.4033 7.14941 13.0811 7.48145C13.0615 7.49121 12.8857 7.67188 12.5537 8.02344C12.2314 8.375 11.8164 8.82422 11.3086 9.37109C10.8105 9.91797 10.249 10.5234 9.62402 11.1875C9.00879 11.8516 8.4082 12.5059 7.82227 13.1504C7.76367 13.1992 7.70508 13.2334 7.64648 13.2529C7.58789 13.2627 7.54395 13.2676 7.51465 13.2676C7.47559 13.2676 7.42676 13.2627 7.36816 13.2529C7.31934 13.2334 7.26562 13.1992 7.20703 13.1504C7.06055 12.9941 6.72852 12.6279 6.21094 12.0518C5.69336 11.4658 5.13672 10.8506 4.54102 10.2061C3.95508 9.55176 3.40332 8.94629 2.88574 8.38965C2.37793 7.82324 2.06543 7.48145 1.94824 7.36426C1.62598 7.04199 1.37695 6.6709 1.20117 6.25098C1.02539 5.83105 0.9375 5.3916 0.9375 4.93262C0.9375 4.47363 1.02539 4.03418 1.20117 3.61426C1.37695 3.19434 1.62598 2.81836 1.94824 2.48633C2.27051 2.17383 2.61719 1.94922 2.98828 1.8125C3.35937 1.67578 3.76953 1.60742 4.21875 1.60742ZM4.21875 0.669922C3.66211 0.669922 3.13477 0.762695 2.63672 0.948242C2.14844 1.12402 1.69922 1.41699 1.28906 1.82715C0.859375 2.25684 0.537109 2.74023 0.322266 3.27734C0.107422 3.81445 0 4.36621 0 4.93262C0 5.48926 0.107422 6.03613 0.322266 6.57324C0.537109 7.11035 0.859375 7.59375 1.28906 8.02344C1.40625 8.15039 1.74316 8.52148 2.2998 9.13672C2.86621 9.75195 3.46191 10.4063 4.08691 11.0996C4.71191 11.793 5.27344 12.418 5.77148 12.9746C6.2793 13.5215 6.5332 13.7949 6.5332 13.7949C6.66992 13.9316 6.82129 14.0342 6.9873 14.1025C7.15332 14.1709 7.3291 14.2051 7.51465 14.2051C7.69043 14.2051 7.86133 14.1709 8.02734 14.1025C8.20312 14.0342 8.35938 13.9316 8.49609 13.7949C8.49609 13.7949 8.76465 13.5068 9.30176 12.9307C9.84863 12.3447 10.4443 11.7002 11.0889 10.9971C11.7432 10.2842 12.3438 9.63477 12.8906 9.04883C13.4473 8.45313 13.7305 8.15039 13.7402 8.14062C14.1699 7.71094 14.4922 7.22754 14.707 6.69043C14.9219 6.14355 15.0293 5.5918 15.0293 5.03516C15.0293 4.47852 14.9219 3.93164 14.707 3.39453C14.4922 2.84766 14.1699 2.36426 13.7402 1.94434C13.3203 1.51465 12.8662 1.19727 12.3779 0.992188C11.8896 0.777343 11.3574 0.669922 10.7812 0.669922C10.2246 0.669922 9.65332 0.855469 9.06738 1.22656C8.49121 1.59766 7.97363 2.01758 7.51465 2.48633C7.03613 2.01758 6.50879 1.59766 5.93262 1.22656C5.36621 0.855469 4.79492 0.669922 4.21875 0.669922Z" fill="#7F8FA4"/>
</svg>
