<svg width="15" height="16" viewBox="0 0 15 16" fill="none" xmlns="http://www.w3.org/2000/svg">
<path d="M8.4375 10.7188H7.96875V6.5293C7.96875 6.51953 7.96875 6.51465 7.96875 6.51465C7.96875 6.50488 7.96875 6.5 7.96875 6.5C7.96875 6.37305 7.91992 6.26562 7.82227 6.17773C7.73438 6.08008 7.62695 6.03125 7.5 6.03125H6.5625C6.43555 6.03125 6.32324 6.08008 6.22559 6.17773C6.1377 6.26562 6.09375 6.37305 6.09375 6.5C6.09375 6.62695 6.1377 6.73926 6.22559 6.83691C6.32324 6.9248 6.43555 6.96875 6.5625 6.96875H7.03125V10.7188H6.5625C6.43555 10.7188 6.32324 10.7676 6.22559 10.8652C6.1377 10.9531 6.09375 11.0605 6.09375 11.1875C6.09375 11.3145 6.1377 11.4268 6.22559 11.5244C6.32324 11.6123 6.43555 11.6562 6.5625 11.6562H8.4375C8.56445 11.6562 8.67188 11.6123 8.75977 11.5244C8.85742 11.4268 8.90625 11.3145 8.90625 11.1875C8.90625 11.0605 8.85742 10.9531 8.75977 10.8652C8.67188 10.7676 8.56445 10.7188 8.4375 10.7188ZM7.5 5.09375C7.76367 5.09375 7.9834 5.00586 8.15918 4.83008C8.34473 4.64453 8.4375 4.41992 8.4375 4.15625C8.4375 3.89258 8.34473 3.67285 8.15918 3.49707C7.9834 3.31152 7.76367 3.21875 7.5 3.21875C7.23633 3.21875 7.01172 3.31152 6.82617 3.49707C6.65039 3.67285 6.5625 3.89258 6.5625 4.15625C6.5625 4.41992 6.65039 4.64453 6.82617 4.83008C7.01172 5.00586 7.23633 5.09375 7.5 5.09375ZM7.5 -0.0625C6.46484 -0.0625 5.48828 0.132812 4.57031 0.523438C3.66211 0.914063 2.86621 1.45117 2.18262 2.13477C1.50879 2.80859 0.976562 3.60449 0.585938 4.52246C0.195312 5.43066 0 6.40234 0 7.4375C0 8.47266 0.195312 9.44922 0.585938 10.3672C0.976562 11.2754 1.50879 12.0713 2.18262 12.7549C2.86621 13.4287 3.66211 13.9609 4.57031 14.3516C5.48828 14.7422 6.46484 14.9375 7.5 14.9375C8.53516 14.9375 9.50684 14.7422 10.415 14.3516C11.333 13.9609 12.1289 13.4287 12.8027 12.7549C13.4863 12.0713 14.0234 11.2754 14.4141 10.3672C14.8047 9.44922 15 8.47266 15 7.4375C15 6.40234 14.8047 5.43066 14.4141 4.52246C14.0234 3.60449 13.4863 2.80859 12.8027 2.13477C12.1289 1.45117 11.333 0.914063 10.415 0.523438C9.50684 0.132812 8.53516 -0.0625 7.5 -0.0625ZM7.5 14.0146C6.5918 14.0146 5.7373 13.8437 4.93652 13.502C4.14551 13.1504 3.45215 12.6768 2.85645 12.0811C2.27051 11.4854 1.80176 10.792 1.4502 10.001C1.1084 9.2002 0.9375 8.3457 0.9375 7.4375C0.9375 6.5293 1.1084 5.67969 1.4502 4.88867C1.80176 4.08789 2.27051 3.39453 2.85645 2.80859C3.45215 2.21289 4.14551 1.74414 4.93652 1.40234C5.7373 1.05078 6.5918 0.875 7.5 0.875C8.4082 0.875 9.25781 1.05078 10.0488 1.40234C10.8496 1.74414 11.543 2.21289 12.1289 2.80859C12.7246 3.39453 13.1934 4.08789 13.5352 4.88867C13.8867 5.67969 14.0625 6.5293 14.0625 7.4375C14.0625 8.3457 13.8867 9.2002 13.5352 10.001C13.1934 10.792 12.7246 11.4854 12.1289 12.0811C11.543 12.6768 10.8496 13.1504 10.0488 13.502C9.25781 13.8437 8.4082 14.0146 7.5 14.0146Z" transform="translate(0 1)" fill="#7F8FA4"/>
</svg>
