<svg width="66" height="82" viewBox="0 0 66 82" fill="none" xmlns="http://www.w3.org/2000/svg">
<path fill-rule="evenodd" clip-rule="evenodd" d="M0 5.94846V73.533C0 76.7081 2.992 79.2824 6.6823 79.2824H57.2611C60.9514 79.2824 63.9434 76.7081 63.9434 73.533V19.4347L40.3064 0L6.37593 0.389086C2.84126 0.429747 0 2.90658 0 5.94846Z" transform="translate(0.815063 1.39478)" fill="#7F8FA4" fill-opacity="0.1"/>
<path fill-rule="evenodd" clip-rule="evenodd" d="M40.7994 1.39868L7.20214 1.78426C4.12866 1.81932 1.62962 3.9982 1.62962 6.64188V74.2265C1.62962 77.0104 4.26148 79.2748 7.49711 79.2748H58.0759C61.3116 79.2748 63.9434 77.0104 63.9434 74.2265V20.4288L40.7994 1.39868ZM58.0759 80.6769H7.49711C3.35622 80.6769 0 77.7886 0 74.2265V6.64195C0 3.24464 3.23074 0.427094 7.17933 0.382226L40.5256 0.000150656C41.1139 -0.00615885 41.6827 0.18593 42.108 0.535757L64.8788 19.2575C65.3221 19.6227 65.573 20.1275 65.573 20.6554V74.2265C65.573 77.7886 62.2168 80.6769 58.0759 80.6769Z" transform="translate(0.000244141 0.700928)" fill="#7F8FA4"/>
<path fill-rule="evenodd" clip-rule="evenodd" d="M0 0.308077V13.3302C0 16.4583 2.94719 18.994 6.58289 18.994H22.5875C22.9093 18.994 23.0674 18.6568 22.8352 18.4647L0.605407 0.0865435C0.378074 -0.101339 0 0.0367685 0 0.308077Z" transform="translate(41.1219 1.80859)" fill="#334150" fill-opacity="0.3"/>
<path d="M7.11711 14.154C7.64911 14.154 8.09711 13.692 8.09711 13.16C8.09711 12.642 7.64911 12.194 7.11711 12.194C6.58511 12.194 6.13711 12.642 6.13711 13.16C6.13711 13.692 6.58511 14.154 7.11711 14.154ZM11.4724 14V10.5H13.9504C15.8964 10.5 16.9884 9.17 16.9884 7.588C16.9884 5.992 15.9104 4.662 13.9504 4.662H9.83442V14H11.4724ZM13.7264 9.058H11.4724V6.104H13.7264C14.6504 6.104 15.3084 6.692 15.3084 7.588C15.3084 8.47 14.6504 9.058 13.7264 9.058ZM21.8517 14C24.7637 14 26.7237 12.082 26.7237 9.324C26.7237 6.594 24.7637 4.662 21.8377 4.662H18.3657V14H21.8517ZM21.8377 12.558H20.0037V6.104H21.8517C23.9237 6.104 25.0437 7.532 25.0437 9.324C25.0437 11.102 23.8677 12.558 21.8377 12.558ZM29.9431 14V9.954H34.6051V8.512H29.9431V6.104H34.7031V4.662H28.3051V14H29.9431Z" transform="translate(12 51)" fill="#7F8FA4"/>
<path fill-rule="evenodd" clip-rule="evenodd" d="M1.62963 1.93286V14.031C1.62963 16.7672 4.21748 18.9938 7.39771 18.9938H22.2664L1.62963 1.93286ZM23.4031 20.396H7.3977C3.31874 20.396 0 17.5406 0 14.0311V1.00898C0 0.603774 0.280296 0.239225 0.712963 0.0807864C1.14644 -0.0776523 1.64593 0.000865996 1.98489 0.281989L24.2147 18.6602C24.5618 18.9476 24.6693 19.3809 24.4901 19.765C24.31 20.1478 23.8839 20.396 23.4031 20.396Z" transform="translate(40.3071 1.10815)" fill="#7F8FA4"/>
</svg>
