<svg width="66" height="82" viewBox="0 0 66 82" fill="none" xmlns="http://www.w3.org/2000/svg">
<path fill-rule="evenodd" clip-rule="evenodd" d="M0 5.94846V73.533C0 76.7081 2.992 79.2824 6.6823 79.2824H57.2611C60.9514 79.2824 63.9434 76.7081 63.9434 73.533V19.4347L40.3064 0L6.37593 0.389086C2.84126 0.429747 0 2.90658 0 5.94846Z" transform="translate(0.815063 1.39478)" fill="#7F8FA4" fill-opacity="0.1"/>
<path fill-rule="evenodd" clip-rule="evenodd" d="M40.7994 1.39868L7.20216 1.78426C4.12868 1.81932 1.62964 3.9982 1.62964 6.64188V74.2265C1.62964 77.0104 4.26149 79.2748 7.49712 79.2748H58.0759C61.3116 79.2748 63.9434 77.0104 63.9434 74.2265V20.4288L40.7994 1.39868ZM58.0759 80.6769H7.49711C3.35622 80.6769 0 77.7886 0 74.2265V6.64195C0 3.24464 3.23074 0.427094 7.17933 0.382226L40.5256 0.000150656C41.1139 -0.00615885 41.6827 0.18593 42.108 0.535757L64.8788 19.2575C65.3221 19.6227 65.573 20.1275 65.573 20.6554V74.2265C65.573 77.7886 62.2168 80.6769 58.0759 80.6769Z" transform="translate(0.000244141 0.700928)" fill="#7F8FA4"/>
<path fill-rule="evenodd" clip-rule="evenodd" d="M0 0.308077V13.3302C0 16.4583 2.94719 18.994 6.58289 18.994H22.5875C22.9093 18.994 23.0674 18.6568 22.8352 18.4647L0.605407 0.0865435C0.378074 -0.101339 0 0.0367685 0 0.308077Z" transform="translate(41.1219 1.80859)" fill="#334150" fill-opacity="0.3"/>
<path d="M7.7255 14.154C8.2575 14.154 8.7055 13.692 8.7055 13.16C8.7055 12.642 8.2575 12.194 7.7255 12.194C7.1935 12.194 6.7455 12.642 6.7455 13.16C6.7455 13.692 7.1935 14.154 7.7255 14.154ZM12.0808 14V10.5H14.5588C16.5048 10.5 17.5968 9.17 17.5968 7.588C17.5968 5.992 16.5188 4.662 14.5588 4.662H10.4428V14H12.0808ZM14.3348 9.058H12.0808V6.104H14.3348C15.2588 6.104 15.9168 6.692 15.9168 7.588C15.9168 8.47 15.2588 9.058 14.3348 9.058ZM20.6121 14V10.5H23.0901C25.0361 10.5 26.1281 9.17 26.1281 7.588C26.1281 5.992 25.0501 4.662 23.0901 4.662H18.9741V14H20.6121ZM22.8661 9.058H20.6121V6.104H22.8661C23.7901 6.104 24.4481 6.692 24.4481 7.588C24.4481 8.47 23.7901 9.058 22.8661 9.058ZM31.3693 14V6.104H34.1973V4.662H26.9033V6.104H29.7313V14H31.3693Z" transform="translate(12 51)" fill="#7F8FA4"/>
<path fill-rule="evenodd" clip-rule="evenodd" d="M1.62964 1.93286V14.031C1.62964 16.7672 4.21749 18.9938 7.39771 18.9938H22.2665L1.62964 1.93286ZM23.4031 20.396H7.3977C3.31874 20.396 0 17.5406 0 14.0311V1.00898C0 0.603774 0.280296 0.239225 0.712963 0.0807864C1.14644 -0.0776523 1.64593 0.000865996 1.98489 0.281989L24.2147 18.6602C24.5618 18.9476 24.6693 19.3809 24.4901 19.765C24.31 20.1478 23.8839 20.396 23.4031 20.396Z" transform="translate(40.3071 1.10815)" fill="#7F8FA4"/>
</svg>
