<svg width="78" height="78" viewBox="0 0 78 78" fill="none" xmlns="http://www.w3.org/2000/svg">
<path opacity="0.04" fill-rule="evenodd" clip-rule="evenodd" d="M39 78C60.5391 78 78 60.5391 78 39C78 17.4609 60.5391 0 39 0C17.4609 0 0 17.4609 0 39C0 60.5391 17.4609 78 39 78Z" fill="#7F8FA4"/>
<path fill-rule="evenodd" clip-rule="evenodd" d="M0 3.38795V41.8808C0 43.6892 1.71442 45.1554 3.82897 45.1554H32.8108C34.9253 45.1554 36.6397 43.6892 36.6397 41.8808V11.069L23.0957 0L3.65342 0.221604C1.62805 0.244763 0 1.65544 0 3.38795Z" transform="translate(21.7397 13.7944)" fill="#7F8FA4" fill-opacity="0.1"/>
<mask id="mask0" mask-type="alpha" maskUnits="userSpaceOnUse" x="21" y="13" width="38" height="47">
<path fill-rule="evenodd" clip-rule="evenodd" d="M0 0L0 45.9495H37.5735V0L0 0Z" transform="translate(21.2728 13.3992)" fill="white"/>
</mask>
<g mask="url(#mask0)">
<path fill-rule="evenodd" clip-rule="evenodd" d="M23.3782 0.796631L4.12685 1.01624C2.36573 1.0362 0.933777 2.27719 0.933777 3.7829V42.2758C0.933777 43.8613 2.44184 45.151 4.29586 45.151H33.2777C35.1317 45.151 36.6397 43.8613 36.6397 42.2758V11.6353L23.3782 0.796631ZM33.2777 45.9496H4.29587C1.92312 45.9496 0 44.3046 0 42.2758V3.78293C0 1.84799 1.85122 0.243252 4.11378 0.217697L23.2213 8.5806e-05C23.5584 -0.00350778 23.8843 0.105897 24.128 0.305141L37.1757 10.9681C37.4297 11.1761 37.5735 11.4636 37.5735 11.7643V42.2758C37.5735 44.3046 35.6504 45.9496 33.2777 45.9496Z" transform="translate(21.2728 13.3992)" fill="#7F8FA4"/>
</g>
<path fill-rule="evenodd" clip-rule="evenodd" d="M0 0.175466V7.59222C0 9.37384 1.68875 10.8181 3.77201 10.8181H12.9427C13.1271 10.8181 13.2177 10.626 13.0846 10.5166L0.3469 0.0492909C0.216637 -0.057718 0 0.0209415 0 0.175466Z" transform="translate(44.8357 14.03)" fill="#7F8FA4" fill-opacity="0.3"/>
<path fill-rule="evenodd" clip-rule="evenodd" d="M0.933777 1.10083V7.99133C0.933777 9.54974 2.41662 10.8179 4.2389 10.8179H12.7587L0.933777 1.10083ZM13.41 11.6166H4.2389C1.90165 11.6166 0 9.99025 0 7.99142V0.574668C0 0.34388 0.160611 0.136251 0.40853 0.0460119C0.656916 -0.0442269 0.94312 0.000493228 1.13735 0.160607L13.8751 10.6279C14.074 10.7916 14.1356 11.0384 14.0329 11.2572C13.9297 11.4752 13.6855 11.6166 13.41 11.6166Z" transform="translate(44.3688 13.6311)" fill="#7F8FA4"/>
<path fill-rule="evenodd" clip-rule="evenodd" d="M0 3C0 1.34315 1.34315 0 3 0H26.5455C28.2023 0 29.5455 1.34315 29.5455 3V14.9916C29.5455 16.6484 28.2023 17.9916 26.5455 17.9916H3C1.34315 17.9916 0 16.6484 0 14.9916V3Z" transform="translate(11.8182 36.3721)" fill="#7F8FA4"/>
<path d="M3.654 11V1.662H2.632L0.294 4.07L0.994 4.784L2.492 3.202V11H3.654ZM8.95814 11.168C10.8341 11.168 12.2761 9.992 12.2761 8.088C12.2761 6.17 10.8621 5.106 9.30814 5.106C8.37014 5.106 7.57214 5.498 7.12414 5.946V2.698H11.6741V1.662H5.96214V6.702L6.81614 6.996C7.44614 6.38 8.14614 6.114 8.97214 6.114C10.2321 6.114 11.1141 6.898 11.1141 8.13C11.1141 9.264 10.2321 10.132 8.95814 10.132C7.81014 10.132 6.99814 9.684 6.38214 8.9L5.66814 9.67C6.36814 10.594 7.37614 11.168 8.95814 11.168Z" transform="translate(20 36)" fill="white"/>
</svg>
