<svg width="66" height="82" viewBox="0 0 66 82" fill="none" xmlns="http://www.w3.org/2000/svg">
<path fill-rule="evenodd" clip-rule="evenodd" d="M0 5.94846V73.533C0 76.7081 2.992 79.2824 6.6823 79.2824H57.2611C60.9514 79.2824 63.9434 76.7081 63.9434 73.533V19.4347L40.3064 0L6.37593 0.389086C2.84126 0.429747 0 2.90658 0 5.94846Z" transform="translate(0.815063 1.39478)" fill="#7F8FA4" fill-opacity="0.1"/>
<path fill-rule="evenodd" clip-rule="evenodd" d="M40.7994 1.39868L7.20216 1.78426C4.12868 1.81932 1.62964 3.9982 1.62964 6.64188V74.2265C1.62964 77.0104 4.26149 79.2748 7.49712 79.2748H58.0759C61.3116 79.2748 63.9434 77.0104 63.9434 74.2265V20.4288L40.7994 1.39868ZM58.0759 80.6769H7.49711C3.35622 80.6769 0 77.7886 0 74.2265V6.64195C0 3.24464 3.23074 0.427094 7.17933 0.382226L40.5256 0.000150656C41.1139 -0.00615885 41.6827 0.18593 42.108 0.535757L64.8788 19.2575C65.3221 19.6227 65.573 20.1275 65.573 20.6554V74.2265C65.573 77.7886 62.2168 80.6769 58.0759 80.6769Z" transform="translate(0.000244141 0.700928)" fill="#7F8FA4"/>
<path fill-rule="evenodd" clip-rule="evenodd" d="M0 0.308077V13.3302C0 16.4583 2.94719 18.994 6.58289 18.994H22.5875C22.9093 18.994 23.0674 18.6568 22.8352 18.4647L0.605407 0.0865435C0.378074 -0.101339 0 0.0367685 0 0.308077Z" transform="translate(41.1219 1.80859)" fill="#334150" fill-opacity="0.3"/>
<path d="M5.20304 14.154C5.73504 14.154 6.18304 13.692 6.18304 13.16C6.18304 12.642 5.73504 12.194 5.20304 12.194C4.67104 12.194 4.22304 12.642 4.22304 13.16C4.22304 13.692 4.67104 14.154 5.20304 14.154ZM11.4064 14C14.3184 14 16.2784 12.082 16.2784 9.324C16.2784 6.594 14.3184 4.662 11.3924 4.662H7.92036V14H11.4064ZM11.3924 12.558H9.55836V6.104H11.4064C13.4784 6.104 14.5984 7.532 14.5984 9.324C14.5984 11.102 13.4224 12.558 11.3924 12.558ZM22.2278 14.168C25.0138 14.168 27.0018 12.124 27.0018 9.338C27.0018 6.552 25.0138 4.508 22.2278 4.508C19.4278 4.508 17.4538 6.552 17.4538 9.338C17.4538 12.124 19.4278 14.168 22.2278 14.168ZM22.2278 12.712C20.3378 12.712 19.1338 11.256 19.1338 9.338C19.1338 7.406 20.3378 5.964 22.2278 5.964C24.1038 5.964 25.3218 7.406 25.3218 9.338C25.3218 11.256 24.1038 12.712 22.2278 12.712ZM33.0589 14.168C34.9349 14.168 36.0969 13.174 36.8109 12.054L35.4109 11.354C34.9629 12.124 34.0529 12.712 33.0589 12.712C31.2109 12.712 29.8389 11.284 29.8389 9.338C29.8389 7.364 31.2109 5.964 33.0589 5.964C34.0529 5.964 34.9629 6.538 35.4109 7.322L36.7969 6.594C36.1109 5.474 34.9349 4.508 33.0589 4.508C30.3009 4.508 28.1589 6.454 28.1589 9.338C28.1589 12.208 30.3009 14.168 33.0589 14.168Z" transform="translate(12 51)" fill="#7F8FA4"/>
<path fill-rule="evenodd" clip-rule="evenodd" d="M1.62964 1.93286V14.031C1.62964 16.7672 4.21749 18.9938 7.39771 18.9938H22.2665L1.62964 1.93286ZM23.4031 20.396H7.3977C3.31874 20.396 0 17.5406 0 14.0311V1.00898C0 0.603774 0.280296 0.239225 0.712963 0.0807864C1.14644 -0.0776523 1.64593 0.000865996 1.98489 0.281989L24.2147 18.6602C24.5618 18.9476 24.6693 19.3809 24.4901 19.765C24.31 20.1478 23.8839 20.396 23.4031 20.396Z" transform="translate(40.3071 1.10815)" fill="#7F8FA4"/>
</svg>
