<svg width="17" height="16" viewBox="0 0 17 16" fill="none" xmlns="http://www.w3.org/2000/svg">
<path d="M14.1211 0.669922C13.8672 0.425781 13.5986 0.240235 13.3154 0.113281C13.042 -0.0136722 12.7539 -0.0771484 12.4512 -0.0771484C11.9824 -0.0771484 11.5869 0.0351565 11.2646 0.259766C10.9424 0.47461 10.7324 0.630859 10.6348 0.728516C10.5664 0.787109 10.0439 1.30469 9.06738 2.28125C8.10059 3.25781 7.0459 4.31738 5.90332 5.45996C4.76074 6.60254 3.71582 7.64746 2.76855 8.59473C1.83105 9.53223 1.3623 10.001 1.3623 10.001C1.33301 10.0303 1.30859 10.0645 1.28906 10.1035C1.26953 10.1328 1.25 10.167 1.23047 10.2061C1.18164 10.4014 1.08887 10.7236 0.952148 11.1729C0.825195 11.6123 0.688477 12.0664 0.541992 12.5352C0.405273 13.0039 0.283203 13.4189 0.175781 13.7803C0.0683594 14.1318 0.00976563 14.3125 0 14.3223C-0.0195313 14.4102 -0.0195313 14.498 0 14.5859C0.0195313 14.6738 0.0634766 14.7471 0.131836 14.8057C0.170898 14.8545 0.219727 14.8887 0.27832 14.9082C0.336914 14.9375 0.395508 14.9521 0.454102 14.9521C0.483398 14.9521 0.507813 14.9473 0.527344 14.9375C0.556641 14.9375 0.581055 14.9326 0.600586 14.9229C0.610352 14.9229 0.800781 14.8594 1.17188 14.7324C1.54297 14.6152 1.95801 14.4834 2.41699 14.3369C2.88574 14.1904 3.33984 14.0488 3.7793 13.9121C4.21875 13.7656 4.50684 13.6729 4.64355 13.6338C4.68262 13.624 4.7168 13.6094 4.74609 13.5898C4.78516 13.5703 4.81934 13.5459 4.84863 13.5166C4.93652 13.4287 5.44434 12.9258 6.37207 12.0078C7.2998 11.0898 8.31543 10.084 9.41895 8.99023C10.5322 7.88672 11.5674 6.86133 12.5244 5.91406C13.4814 4.9668 14.0283 4.41992 14.165 4.27344C14.4482 3.98047 14.6631 3.68262 14.8096 3.37988C14.9561 3.06738 15.0244 2.75 15.0146 2.42773C15.0049 2.125 14.9268 1.82715 14.7803 1.53418C14.6338 1.23145 14.4141 0.94336 14.1211 0.669922ZM10.4883 2.22266C10.6055 2.25195 10.791 2.3252 11.0449 2.44238C11.2988 2.55957 11.5723 2.75977 11.8652 3.04297C12.1582 3.33594 12.3535 3.62891 12.4512 3.92188C12.5586 4.20508 12.6172 4.38574 12.627 4.46387C12.168 4.91309 11.582 5.48926 10.8691 6.19238C10.166 6.89551 9.43848 7.62305 8.68652 8.375C7.93457 9.11719 7.21191 9.83008 6.51855 10.5137C5.83496 11.1875 5.28809 11.7295 4.87793 12.1396C4.7998 11.9639 4.69238 11.7734 4.55566 11.5684C4.42871 11.3535 4.26758 11.1436 4.07227 10.9385C3.82813 10.6943 3.58398 10.499 3.33984 10.3525C3.10547 10.2061 2.89062 10.0938 2.69531 10.0156C3.10547 9.60547 3.65723 9.05371 4.35059 8.36035C5.04395 7.66699 5.7666 6.93945 6.51855 6.17773C7.28027 5.41602 8.01758 4.67871 8.73047 3.96582C9.44336 3.25293 10.0293 2.67188 10.4883 2.22266ZM2.05078 10.8066C2.1875 10.8359 2.37793 10.9141 2.62207 11.041C2.86621 11.1582 3.125 11.3535 3.39844 11.627C3.60352 11.832 3.75977 12.042 3.86719 12.2568C3.97461 12.4717 4.05273 12.6523 4.10156 12.7988C3.7793 12.9063 3.31543 13.0625 2.70996 13.2676C2.10449 13.4727 1.57227 13.6484 1.11328 13.7949C1.25 13.3555 1.41113 12.8379 1.59668 12.2422C1.79199 11.6465 1.94336 11.168 2.05078 10.8066ZM13.4766 3.59961C13.4668 3.60938 13.4521 3.62402 13.4326 3.64355C13.4229 3.66309 13.4082 3.68262 13.3887 3.70215C13.3203 3.50684 13.2178 3.29199 13.0811 3.05762C12.9443 2.82324 12.7637 2.59375 12.5391 2.36914C12.3047 2.13477 12.0752 1.94922 11.8506 1.8125C11.626 1.66602 11.4209 1.55371 11.2354 1.47559C11.2549 1.45605 11.2695 1.44141 11.2793 1.43164C11.2891 1.42187 11.2988 1.41211 11.3086 1.40234C11.3281 1.37305 11.4453 1.28027 11.6602 1.12402C11.8848 0.967773 12.1484 0.889648 12.4512 0.889648C12.627 0.889648 12.7979 0.928711 12.9639 1.00684C13.1396 1.08496 13.3057 1.20215 13.4619 1.3584C13.6572 1.54395 13.8037 1.72949 13.9014 1.91504C14.0088 2.10059 14.0625 2.28125 14.0625 2.45703C14.0625 2.63281 14.0137 2.81836 13.916 3.01367C13.8184 3.20898 13.6719 3.4043 13.4766 3.59961Z" transform="translate(1 1)" fill="#7F8FA4"/>
</svg>
