<svg width="16" height="15" viewBox="0 0 16 15" fill="none" xmlns="http://www.w3.org/2000/svg">
<path d="M2.34375 5.62109V0.40625C2.34375 0.279297 2.29492 0.171875 2.19727 0.0839844C2.10938 -0.0136722 2.00195 -0.0625 1.875 -0.0625C1.74805 -0.0625 1.63574 -0.0136722 1.53809 0.0839844C1.4502 0.171875 1.40625 0.279297 1.40625 0.40625V5.62109C1.00586 5.72852 0.668945 5.94824 0.395508 6.28027C0.131836 6.6123 0 6.99805 0 7.4375C0 7.87695 0.131836 8.2627 0.395508 8.59473C0.668945 8.92676 1.00586 9.14648 1.40625 9.25391V14.4688C1.40625 14.5957 1.4502 14.7031 1.53809 14.791C1.63574 14.8887 1.74805 14.9375 1.875 14.9375C2.00195 14.9375 2.10938 14.8887 2.19727 14.791C2.29492 14.7031 2.34375 14.5957 2.34375 14.4688V9.25391C2.75391 9.14648 3.09082 8.92676 3.35449 8.59473C3.61816 8.2627 3.75 7.87695 3.75 7.4375C3.75 6.99805 3.61816 6.6123 3.35449 6.28027C3.09082 5.94824 2.75391 5.72852 2.34375 5.62109ZM1.875 8.375C1.61133 8.375 1.38672 8.28223 1.20117 8.09668C1.02539 7.91113 0.9375 7.69141 0.9375 7.4375C0.9375 7.18359 1.02539 6.96387 1.20117 6.77832C1.38672 6.59277 1.61133 6.5 1.875 6.5C2.13867 6.5 2.3584 6.59277 2.53418 6.77832C2.71973 6.96387 2.8125 7.18359 2.8125 7.4375C2.8125 7.69141 2.71973 7.91113 2.53418 8.09668C2.3584 8.28223 2.13867 8.375 1.875 8.375ZM7.96875 8.43359V0.40625C7.96875 0.279297 7.91992 0.171875 7.82227 0.0839844C7.73438 -0.0136722 7.62695 -0.0625 7.5 -0.0625C7.37305 -0.0625 7.26074 -0.0136722 7.16309 0.0839844C7.0752 0.171875 7.03125 0.279297 7.03125 0.40625V8.43359C6.63086 8.54102 6.29395 8.76074 6.02051 9.09277C5.75684 9.4248 5.625 9.81055 5.625 10.25C5.625 10.6895 5.75684 11.0752 6.02051 11.4072C6.29395 11.7393 6.63086 11.959 7.03125 12.0664V14.4688C7.03125 14.5957 7.0752 14.7031 7.16309 14.791C7.26074 14.8887 7.37305 14.9375 7.5 14.9375C7.62695 14.9375 7.73438 14.8887 7.82227 14.791C7.91992 14.7031 7.96875 14.5957 7.96875 14.4688V12.0664C8.37891 11.959 8.71582 11.7393 8.97949 11.4072C9.24316 11.0752 9.375 10.6895 9.375 10.25C9.375 9.81055 9.24316 9.4248 8.97949 9.09277C8.71582 8.76074 8.37891 8.54102 7.96875 8.43359ZM7.5 11.1875C7.23633 11.1875 7.01172 11.0947 6.82617 10.9092C6.65039 10.7236 6.5625 10.5039 6.5625 10.25C6.5625 9.99609 6.65039 9.77637 6.82617 9.59082C7.01172 9.40527 7.23633 9.3125 7.5 9.3125C7.76367 9.3125 7.9834 9.40527 8.15918 9.59082C8.34473 9.77637 8.4375 9.99609 8.4375 10.25C8.4375 10.5039 8.34473 10.7236 8.15918 10.9092C7.9834 11.0947 7.76367 11.1875 7.5 11.1875ZM13.5938 2.80859V0.40625C13.5938 0.279297 13.5449 0.171875 13.4473 0.0839844C13.3594 -0.0136722 13.252 -0.0625 13.125 -0.0625C12.998 -0.0625 12.8857 -0.0136722 12.7881 0.0839844C12.7002 0.171875 12.6562 0.279297 12.6562 0.40625V2.80859C12.2559 2.91602 11.9189 3.13574 11.6455 3.46777C11.3818 3.7998 11.25 4.18555 11.25 4.625C11.25 5.06445 11.3818 5.4502 11.6455 5.78223C11.9189 6.11426 12.2559 6.33398 12.6562 6.44141V14.4688C12.6562 14.5957 12.7002 14.7031 12.7881 14.791C12.8857 14.8887 12.998 14.9375 13.125 14.9375C13.252 14.9375 13.3594 14.8887 13.4473 14.791C13.5449 14.7031 13.5938 14.5957 13.5938 14.4688V6.44141C14.0039 6.33398 14.3408 6.11426 14.6045 5.78223C14.8682 5.4502 15 5.06445 15 4.625C15 4.18555 14.8682 3.7998 14.6045 3.46777C14.3408 3.13574 14.0039 2.91602 13.5938 2.80859ZM13.125 5.5625C12.8613 5.5625 12.6367 5.46973 12.4512 5.28418C12.2754 5.09863 12.1875 4.87891 12.1875 4.625C12.1875 4.37109 12.2754 4.15137 12.4512 3.96582C12.6367 3.78027 12.8613 3.6875 13.125 3.6875C13.3887 3.6875 13.6084 3.78027 13.7842 3.96582C13.9697 4.15137 14.0625 4.37109 14.0625 4.625C14.0625 4.87891 13.9697 5.09863 13.7842 5.28418C13.6084 5.46973 13.3887 5.5625 13.125 5.5625Z" transform="translate(15) rotate(90)" fill="white"/>
</svg>
