<svg width="15" height="16" viewBox="0 0 15 16" fill="none" xmlns="http://www.w3.org/2000/svg">
<path d="M12.6562 10.25C12.2656 10.25 11.9043 10.3379 11.5723 10.5137C11.25 10.6797 10.9863 10.9092 10.7812 11.2021L4.59961 8.05273C4.62891 7.95508 4.64844 7.85742 4.6582 7.75977C4.67773 7.65234 4.6875 7.54492 4.6875 7.4375C4.6875 7.30078 4.67285 7.16895 4.64355 7.04199C4.62402 6.91504 4.59473 6.79297 4.55566 6.67578L10.7666 3.6582C10.9814 3.95117 11.25 4.18555 11.5723 4.36133C11.9043 4.53711 12.2656 4.625 12.6562 4.625C13.3008 4.625 13.8525 4.39551 14.3115 3.93652C14.7705 3.47754 15 2.92578 15 2.28125C15 1.63672 14.7705 1.08496 14.3115 0.625977C13.8525 0.166992 13.3008 -0.0625 12.6562 -0.0625C12.0117 -0.0625 11.46 0.166992 11.001 0.625977C10.542 1.08496 10.3125 1.63672 10.3125 2.28125C10.3125 2.36914 10.3174 2.45703 10.3271 2.54492C10.3369 2.63281 10.3516 2.7207 10.3711 2.80859L4.07227 5.87012C3.85742 5.62598 3.59863 5.43555 3.2959 5.29883C3.00293 5.16211 2.68555 5.09375 2.34375 5.09375C1.69922 5.09375 1.14746 5.32324 0.688477 5.78223C0.229492 6.24121 0 6.79297 0 7.4375C0 8.08203 0.229492 8.63379 0.688477 9.09277C1.14746 9.55176 1.69922 9.78125 2.34375 9.78125C2.71484 9.78125 3.05664 9.70312 3.36914 9.54688C3.69141 9.38086 3.95996 9.16113 4.1748 8.8877L10.3857 12.0518C10.3564 12.1396 10.3369 12.2275 10.3271 12.3154C10.3174 12.4033 10.3125 12.4961 10.3125 12.5938C10.3125 13.2383 10.542 13.79 11.001 14.249C11.46 14.708 12.0117 14.9375 12.6562 14.9375C13.3008 14.9375 13.8525 14.708 14.3115 14.249C14.7705 13.79 15 13.2383 15 12.5938C15 11.9492 14.7705 11.3975 14.3115 10.9385C13.8525 10.4795 13.3008 10.25 12.6562 10.25ZM12.6562 0.875C13.0469 0.875 13.3789 1.01172 13.6523 1.28516C13.9258 1.55859 14.0625 1.89062 14.0625 2.28125C14.0625 2.67188 13.9258 3.00391 13.6523 3.27734C13.3789 3.55078 13.0469 3.6875 12.6562 3.6875C12.2656 3.6875 11.9336 3.55078 11.6602 3.27734C11.3867 3.00391 11.25 2.67188 11.25 2.28125C11.25 1.89062 11.3867 1.55859 11.6602 1.28516C11.9336 1.01172 12.2656 0.875 12.6562 0.875ZM2.34375 8.84375C1.95312 8.84375 1.62109 8.70703 1.34766 8.43359C1.07422 8.16016 0.9375 7.82812 0.9375 7.4375C0.9375 7.04688 1.07422 6.71484 1.34766 6.44141C1.62109 6.16797 1.95312 6.03125 2.34375 6.03125C2.73438 6.03125 3.06641 6.16797 3.33984 6.44141C3.61328 6.71484 3.75 7.04688 3.75 7.4375C3.75 7.82812 3.61328 8.16016 3.33984 8.43359C3.06641 8.70703 2.73438 8.84375 2.34375 8.84375ZM12.6562 14C12.2656 14 11.9336 13.8633 11.6602 13.5898C11.3867 13.3164 11.25 12.9844 11.25 12.5938C11.25 12.2031 11.3867 11.8711 11.6602 11.5977C11.9336 11.3242 12.2656 11.1875 12.6562 11.1875C13.0469 11.1875 13.3789 11.3242 13.6523 11.5977C13.9258 11.8711 14.0625 12.2031 14.0625 12.5938C14.0625 12.9844 13.9258 13.3164 13.6523 13.5898C13.3789 13.8633 13.0469 14 12.6562 14Z" transform="translate(0 1)" fill="#7F8FA4"/>
</svg>
