<svg width="15" height="16" viewBox="0 0 15 16" fill="none" xmlns="http://www.w3.org/2000/svg">
<path d="M20 6.03125V1.08008C20 0.767578 19.8877 0.499023 19.6631 0.274414C19.4385 0.049805 19.1699 -0.0625 18.8574 -0.0625H13.8037C13.6377 -0.0625 13.4473 -0.0478516 13.2324 -0.0185547C13.0273 0.000976264 12.8467 0.0888669 12.6904 0.245117L5.27832 7.65723C5.19043 7.75488 5.12207 7.8623 5.07324 7.97949C5.02441 8.08691 5 8.2041 5 8.33105C5 8.45801 5.02441 8.58008 5.07324 8.69727C5.12207 8.80469 5.19043 8.90234 5.27832 8.99023L10.9473 14.6592C11.0352 14.7471 11.1328 14.8154 11.2402 14.8643C11.3574 14.9131 11.4795 14.9375 11.6064 14.9375C11.7334 14.9375 11.8506 14.9131 11.958 14.8643C12.0752 14.8154 12.1826 14.7471 12.2803 14.6592L19.6924 7.24707C19.8486 7.09082 19.9365 6.90527 19.9561 6.69043C19.9854 6.47559 20 6.25586 20 6.03125ZM19.0186 6.58789L11.6064 14L5.9375 8.33105L13.3496 0.918945C13.3789 0.899414 13.4473 0.889648 13.5547 0.889648C13.6621 0.879883 13.7451 0.875 13.8037 0.875H14.0088H18.8574C18.916 0.875 18.9648 0.894531 19.0039 0.933594C19.043 0.972657 19.0625 1.02148 19.0625 1.08008V6.0459C19.0625 6.13379 19.0576 6.23633 19.0479 6.35352C19.0479 6.4707 19.0381 6.54883 19.0186 6.58789ZM16.25 1.8125C15.7324 1.8125 15.2881 1.99805 14.917 2.36914C14.5557 2.73047 14.375 3.16992 14.375 3.6875C14.375 4.20508 14.5557 4.64941 14.917 5.02051C15.2881 5.38184 15.7324 5.5625 16.25 5.5625C16.7676 5.5625 17.207 5.38184 17.5684 5.02051C17.9395 4.64941 18.125 4.20508 18.125 3.6875C18.125 3.16992 17.9395 2.73047 17.5684 2.36914C17.207 1.99805 16.7676 1.8125 16.25 1.8125ZM16.25 4.625C15.9961 4.625 15.7764 4.53711 15.5908 4.36133C15.4053 4.17578 15.3125 3.95117 15.3125 3.6875C15.3125 3.42383 15.4053 3.2041 15.5908 3.02832C15.7764 2.84277 15.9961 2.75 16.25 2.75C16.5137 2.75 16.7334 2.84277 16.9092 3.02832C17.0947 3.2041 17.1875 3.42383 17.1875 3.6875C17.1875 3.95117 17.0947 4.17578 16.9092 4.36133C16.7334 4.53711 16.5137 4.625 16.25 4.625Z" transform="translate(-5 1)" fill="#334150"/>
</svg>
