<svg width="13" height="16" viewBox="0 0 13 16" fill="none" xmlns="http://www.w3.org/2000/svg">
<path d="M13.1396 2.2666H9.84375V0.992188C9.84375 0.689453 9.73633 0.435547 9.52148 0.230469C9.30664 0.0253906 9.05273 -0.0771484 8.75977 -0.0771484H6.24023C5.94727 -0.0771484 5.69336 0.0253906 5.47852 0.230469C5.26367 0.435547 5.15625 0.689453 5.15625 0.992188V2.2666H1.86035C1.7334 2.2666 1.62109 2.31543 1.52344 2.41309C1.43555 2.50098 1.3916 2.6084 1.3916 2.73535C1.3916 2.8623 1.43555 2.97461 1.52344 3.07227C1.62109 3.16016 1.7334 3.2041 1.86035 3.2041H2.50488L3.58887 14.0439C3.61816 14.2979 3.72559 14.5127 3.91113 14.6885C4.10645 14.8643 4.33105 14.9521 4.58496 14.9521H10.415C10.6689 14.9521 10.8887 14.8643 11.0742 14.6885C11.2695 14.5127 11.377 14.2979 11.3965 14.0439L12.4951 3.2041H13.1396C13.2666 3.2041 13.374 3.16016 13.4619 3.07227C13.5596 2.97461 13.6084 2.8623 13.6084 2.73535C13.6084 2.6084 13.5596 2.50098 13.4619 2.41309C13.374 2.31543 13.2666 2.2666 13.1396 2.2666ZM6.09375 0.992188C6.09375 0.953125 6.1084 0.918945 6.1377 0.889648C6.16699 0.860352 6.20117 0.845703 6.24023 0.845703H8.75977C8.79883 0.845703 8.83301 0.860352 8.8623 0.889648C8.8916 0.918945 8.90625 0.953125 8.90625 0.992188V2.2666H6.09375V0.992188ZM10.4736 13.9561C10.4736 13.9756 10.4639 13.9902 10.4443 14C10.4346 14.0098 10.4248 14.0146 10.415 14.0146H4.58496C4.5752 14.0146 4.56055 14.0098 4.54102 14C4.53125 13.9805 4.52637 13.9658 4.52637 13.9561L3.45703 3.2041H11.543L10.4736 13.9561Z" transform="translate(-1 1)" fill="#7F8FA4"/>
</svg>
