<svg width="50" height="44" viewBox="0 0 50 44" fill="none" xmlns="http://www.w3.org/2000/svg">
<path d="M37.2559 12.8203C36.7025 11.388 36.0026 10.0859 35.1562 8.91406C34.3099 7.74219 33.3008 6.74935 32.1289 5.93555C30.957 5.12174 29.6387 4.50326 28.1738 4.08008C26.709 3.62435 25.0977 3.39648 23.3398 3.39648C21.0612 3.39648 18.9779 3.78711 17.0898 4.56836C15.2344 5.34961 13.6068 6.4401 12.207 7.83984C10.8398 9.20703 9.73307 10.8346 8.88672 12.7227C8.07292 14.5781 7.60091 16.5964 7.4707 18.7773C5.28971 19.4609 3.49935 20.8118 2.09961 22.8301C0.69987 24.8483 0 27.1107 0 29.6172C0 31.1471 0.276693 32.5957 0.830078 33.9629C1.41602 35.3301 2.18099 36.5345 3.125 37.5762C4.10156 38.6178 5.22461 39.4479 6.49414 40.0664C7.76367 40.6523 9.11458 40.9453 10.5469 40.9453H15.0391C15.4948 40.9453 15.8691 40.7988 16.1621 40.5059C16.4551 40.1803 16.6016 39.806 16.6016 39.3828C16.6016 38.9596 16.4551 38.6016 16.1621 38.3086C15.8691 37.9831 15.4948 37.8203 15.0391 37.8203H10.5469C8.52865 37.8203 6.77083 37.0065 5.27344 35.3789C3.80859 33.7513 3.07617 31.8307 3.07617 29.6172C3.07617 27.6641 3.67839 25.9062 4.88281 24.3438C6.08724 22.7812 7.55208 21.8535 9.27734 21.5605L10.6934 21.3164L10.5957 19.8516H10.5469C10.5469 17.9635 10.8398 16.2057 11.4258 14.5781C12.0443 12.918 12.9069 11.502 14.0137 10.3301C15.153 9.12565 16.5039 8.19792 18.0664 7.54688C19.6289 6.86328 21.3867 6.52148 23.3398 6.52148C26.4323 6.52148 28.8737 7.25391 30.6641 8.71875C32.487 10.151 33.8053 12.1693 34.6191 14.7734L34.9609 15.8477L36.084 15.8965C37.5488 15.8965 38.9323 16.1895 40.2344 16.7754C41.5365 17.3288 42.6921 18.0938 43.7012 19.0703C44.7103 20.0143 45.5078 21.1374 46.0938 22.4395C46.6797 23.709 46.9727 25.0762 46.9727 26.541C46.9727 27.8757 46.7611 29.2103 46.3379 30.5449C45.9147 31.8796 45.3125 33.084 44.5312 34.1582C43.75 35.2324 42.806 36.1113 41.6992 36.7949C40.625 37.4785 39.4206 37.8203 38.0859 37.8203H34.5215C34.0983 37.8203 33.724 37.9831 33.3984 38.3086C33.1055 38.6016 32.959 38.9596 32.959 39.3828C32.959 39.806 33.1055 40.1803 33.3984 40.5059C33.724 40.7988 34.0983 40.9453 34.5215 40.9453H38.0859C40.0391 40.8802 41.748 40.4082 43.2129 39.5293C44.7103 38.6504 45.9473 37.5436 46.9238 36.209C47.9329 34.8418 48.6979 33.3118 49.2188 31.6191C49.7396 29.9264 50 28.2337 50 26.541C50 24.7507 49.6582 23.0742 48.9746 21.5117C48.3236 19.9167 47.4121 18.5169 46.2402 17.3125C45.1009 16.0755 43.75 15.0664 42.1875 14.2852C40.6576 13.5039 39.0137 13.0156 37.2559 12.8203ZM26.1719 25.2715C26.1719 25.2715 26.1719 25.2552 26.1719 25.2227L25.7812 24.832C25.651 24.7018 25.5208 24.6204 25.3906 24.5879C25.2604 24.5228 25.1139 24.4902 24.9512 24.4902C24.821 24.4902 24.6745 24.5228 24.5117 24.5879C24.3815 24.6204 24.2676 24.7018 24.1699 24.832L23.7793 25.2227C23.7793 25.2552 23.7793 25.2715 23.7793 25.2715L18.1152 31.5215C17.8874 31.7493 17.7734 32.026 17.7734 32.3516C17.7734 32.6445 17.8874 32.9212 18.1152 33.1816L18.5059 33.4258C18.7337 33.6536 18.9941 33.7513 19.2871 33.7188C19.6126 33.6536 19.8893 33.5072 20.1172 33.2793L23.4375 29.5684V45.291C23.4375 45.7467 23.584 46.1211 23.877 46.4141C24.1699 46.707 24.5443 46.8535 25 46.8535C25.4232 46.8535 25.7812 46.707 26.0742 46.4141C26.3997 46.1211 26.5625 45.7467 26.5625 45.291V29.5684L29.9805 33.377C30.2083 33.6048 30.4688 33.7513 30.7617 33.8164C31.0872 33.849 31.3477 33.7513 31.543 33.5234L31.9336 33.2793C32.1615 33.0189 32.2754 32.7422 32.2754 32.4492C32.2754 32.1237 32.1615 31.847 31.9336 31.6191L26.1719 25.2715Z" transform="translate(0 -3)" fill="#E2E3E9"/>
</svg>
